<?xml version="1.0" encoding="ISO8859-1"?>
<svg xmlns="http://www.w3.org/2000/svg" xmlns:xlink="http://www.w3.org/1999/xlink" width="288px" height="252px" viewBox="0 0 288 252" version="1.1" id="Fig:dens">
  <metadata xmlns:gridsvg="http://www.stat.auckland.ac.nz/~paul/R/gridSVG/">
    <gridsvg:generator name="gridSVG" version="1.7-2" time="2020-05-01 18:05:39"/>
    <gridsvg:argument name="name" value="arrayQualityMetrics report for esetMM/dens.svg"/>
    <gridsvg:argument name="exportCoords" value="none"/>
    <gridsvg:argument name="exportMappings" value="none"/>
    <gridsvg:argument name="exportJS" value="none"/>
    <gridsvg:argument name="res" value="72"/>
    <gridsvg:argument name="prefix" value="Fig:dens"/>
    <gridsvg:argument name="addClasses" value="FALSE"/>
    <gridsvg:argument name="indent" value="TRUE"/>
    <gridsvg:argument name="htmlWrapper" value="FALSE"/>
    <gridsvg:argument name="usePaths" value="none"/>
    <gridsvg:argument name="uniqueNames" value="TRUE"/>
    <gridsvg:separator name="id.sep" value="."/>
    <gridsvg:separator name="gPath.sep" value="::"/>
    <gridsvg:separator name="vpPath.sep" value="::"/>
  </metadata>
  <g transform="translate(0, 252) scale(1, -1)">
    <g id="Fig:densgridSVG" fill="none" stroke="rgb(0,0,0)" stroke-dasharray="none" stroke-width="0.75" font-size="12" font-family="Helvetica, Arial, FreeSans, Liberation Sans, Nimbus Sans L, sans-serif" opacity="1" stroke-linecap="round" stroke-linejoin="round" stroke-miterlimit="10" stroke-opacity="1" fill-opacity="0" font-weight="normal" font-style="normal">
      <g id="Fig:densplot_01.background.1">
        <rect id="Fig:densplot_01.background.1.1" x="0" y="0" width="288" height="252" transform="" fill="none" stroke="none" stroke-opacity="0" fill-opacity="0"/>
      </g>
      <g id="Fig:densplot_01.toplevel.vp.1" font-size="12">
        <g id="Fig:densplot_01.ylab.vp.1">
          <g id="Fig:densplot_01.ylab.1">
            <g id="Fig:densplot_01.ylab.1.1" transform="translate(10.31, 138.09)" stroke-width="0.1">
              <g id="Fig:densplot_01.ylab.1.1.scale" transform="scale(1, -1)">
                <text x="0" y="0" id="Fig:densplot_01.ylab.1.1.text" transform="rotate(-90)" text-anchor="middle" opacity="1" stroke="rgb(0,0,0)" fill="rgb(0,0,0)" stroke-opacity="1" fill-opacity="1" font-size="12" font-weight="normal" font-style="normal">
                  <tspan id="Fig:densplot_01.ylab.1.1.tspan.1" dy="4.31" x="0">Density</tspan>
                </text>
              </g>
            </g>
          </g>
        </g>
        <g id="Fig:densplot_01.figure.vp.1"/>
        <defs>
          <clipPath id="Fig:densplot_01.panel.1.1.vp.1.clipPath">
            <rect x="44.8" y="42.19" width="231.2" height="191.81" fill="none" stroke="none"/>
          </clipPath>
        </defs>
        <g id="Fig:densplot_01.panel.1.1.vp.1" clip-path="url(#Fig:densplot_01.panel.1.1.vp.1.clipPath)"/>
        <g id="Fig:densplot_01.strip.1.1.off.vp.1"/>
        <g id="Fig:densplot_01.strip.left.1.1.off.vp.1">
          <g id="Fig:densplot_01.ticks.left.panel.1.1.1">
            <polyline id="Fig:densplot_01.ticks.left.panel.1.1.1.1" points="44.8,53.96 39.13,53.96" stroke="rgb(0,0,0)" opacity="1" stroke-dasharray="none" stroke-width="0.75" stroke-opacity="1" fill="none"/>
            <polyline id="Fig:densplot_01.ticks.left.panel.1.1.1.2" points="44.8,98.67 39.13,98.67" stroke="rgb(0,0,0)" opacity="1" stroke-dasharray="none" stroke-width="0.75" stroke-opacity="1" fill="none"/>
            <polyline id="Fig:densplot_01.ticks.left.panel.1.1.1.3" points="44.8,143.39 39.13,143.39" stroke="rgb(0,0,0)" opacity="1" stroke-dasharray="none" stroke-width="0.75" stroke-opacity="1" fill="none"/>
            <polyline id="Fig:densplot_01.ticks.left.panel.1.1.1.4" points="44.8,188.1 39.13,188.1" stroke="rgb(0,0,0)" opacity="1" stroke-dasharray="none" stroke-width="0.75" stroke-opacity="1" fill="none"/>
            <polyline id="Fig:densplot_01.ticks.left.panel.1.1.1.5" points="44.8,232.82 39.13,232.82" stroke="rgb(0,0,0)" opacity="1" stroke-dasharray="none" stroke-width="0.75" stroke-opacity="1" fill="none"/>
          </g>
          <g id="Fig:densplot_01.ticklabels.left.panel.1.1.1">
            <g id="Fig:densplot_01.ticklabels.left.panel.1.1.1.1" transform="translate(33.47, 53.96)" stroke-width="0.1">
              <g id="Fig:densplot_01.ticklabels.left.panel.1.1.1.1.scale" transform="scale(1, -1)">
                <text x="0" y="0" id="Fig:densplot_01.ticklabels.left.panel.1.1.1.1.text" transform="rotate(-90)" text-anchor="middle" stroke="rgb(0,0,0)" opacity="1" fill="rgb(0,0,0)" stroke-opacity="1" fill-opacity="1" font-size="9.6" font-weight="normal" font-style="normal">
                  <tspan id="Fig:densplot_01.ticklabels.left.panel.1.1.1.1.tspan.1" dy="0" x="0">0.0</tspan>
                </text>
              </g>
            </g>
            <g id="Fig:densplot_01.ticklabels.left.panel.1.1.1.2" transform="translate(33.47, 98.67)" stroke-width="0.1">
              <g id="Fig:densplot_01.ticklabels.left.panel.1.1.1.2.scale" transform="scale(1, -1)">
                <text x="0" y="0" id="Fig:densplot_01.ticklabels.left.panel.1.1.1.2.text" transform="rotate(-90)" text-anchor="middle" stroke="rgb(0,0,0)" opacity="1" fill="rgb(0,0,0)" stroke-opacity="1" fill-opacity="1" font-size="9.6" font-weight="normal" font-style="normal">
                  <tspan id="Fig:densplot_01.ticklabels.left.panel.1.1.1.2.tspan.1" dy="0" x="0">0.1</tspan>
                </text>
              </g>
            </g>
            <g id="Fig:densplot_01.ticklabels.left.panel.1.1.1.3" transform="translate(33.47, 143.39)" stroke-width="0.1">
              <g id="Fig:densplot_01.ticklabels.left.panel.1.1.1.3.scale" transform="scale(1, -1)">
                <text x="0" y="0" id="Fig:densplot_01.ticklabels.left.panel.1.1.1.3.text" transform="rotate(-90)" text-anchor="middle" stroke="rgb(0,0,0)" opacity="1" fill="rgb(0,0,0)" stroke-opacity="1" fill-opacity="1" font-size="9.6" font-weight="normal" font-style="normal">
                  <tspan id="Fig:densplot_01.ticklabels.left.panel.1.1.1.3.tspan.1" dy="0" x="0">0.2</tspan>
                </text>
              </g>
            </g>
            <g id="Fig:densplot_01.ticklabels.left.panel.1.1.1.4" transform="translate(33.47, 188.1)" stroke-width="0.1">
              <g id="Fig:densplot_01.ticklabels.left.panel.1.1.1.4.scale" transform="scale(1, -1)">
                <text x="0" y="0" id="Fig:densplot_01.ticklabels.left.panel.1.1.1.4.text" transform="rotate(-90)" text-anchor="middle" stroke="rgb(0,0,0)" opacity="1" fill="rgb(0,0,0)" stroke-opacity="1" fill-opacity="1" font-size="9.6" font-weight="normal" font-style="normal">
                  <tspan id="Fig:densplot_01.ticklabels.left.panel.1.1.1.4.tspan.1" dy="0" x="0">0.3</tspan>
                </text>
              </g>
            </g>
          </g>
        </g>
        <g id="Fig:densplot_01.panel.1.1.off.vp.1">
          <g id="Fig:densplot_01.ticks.bottom.panel.1.1.1">
            <polyline id="Fig:densplot_01.ticks.bottom.panel.1.1.1.1" points="69.83,42.19 69.83,36.52" stroke="rgb(0,0,0)" opacity="1" stroke-dasharray="none" stroke-width="0.75" stroke-opacity="1" fill="none"/>
            <polyline id="Fig:densplot_01.ticks.bottom.panel.1.1.1.2" points="113.13,42.19 113.13,36.52" stroke="rgb(0,0,0)" opacity="1" stroke-dasharray="none" stroke-width="0.75" stroke-opacity="1" fill="none"/>
            <polyline id="Fig:densplot_01.ticks.bottom.panel.1.1.1.3" points="156.43,42.19 156.43,36.52" stroke="rgb(0,0,0)" opacity="1" stroke-dasharray="none" stroke-width="0.75" stroke-opacity="1" fill="none"/>
            <polyline id="Fig:densplot_01.ticks.bottom.panel.1.1.1.4" points="199.73,42.19 199.73,36.52" stroke="rgb(0,0,0)" opacity="1" stroke-dasharray="none" stroke-width="0.75" stroke-opacity="1" fill="none"/>
            <polyline id="Fig:densplot_01.ticks.bottom.panel.1.1.1.5" points="243.03,42.19 243.03,36.52" stroke="rgb(0,0,0)" opacity="1" stroke-dasharray="none" stroke-width="0.75" stroke-opacity="1" fill="none"/>
          </g>
          <g id="Fig:densplot_01.ticklabels.bottom.panel.1.1.1">
            <g id="Fig:densplot_01.ticklabels.bottom.panel.1.1.1.1" transform="translate(69.83, 30.85)" stroke-width="0.1">
              <g id="Fig:densplot_01.ticklabels.bottom.panel.1.1.1.1.scale" transform="scale(1, -1)">
                <text x="0" y="0" id="Fig:densplot_01.ticklabels.bottom.panel.1.1.1.1.text" text-anchor="middle" stroke="rgb(0,0,0)" opacity="1" fill="rgb(0,0,0)" stroke-opacity="1" fill-opacity="1" font-size="9.6" font-weight="normal" font-style="normal">
                  <tspan id="Fig:densplot_01.ticklabels.bottom.panel.1.1.1.1.tspan.1" dy="7.18" x="0">4</tspan>
                </text>
              </g>
            </g>
            <g id="Fig:densplot_01.ticklabels.bottom.panel.1.1.1.2" transform="translate(113.13, 30.85)" stroke-width="0.1">
              <g id="Fig:densplot_01.ticklabels.bottom.panel.1.1.1.2.scale" transform="scale(1, -1)">
                <text x="0" y="0" id="Fig:densplot_01.ticklabels.bottom.panel.1.1.1.2.text" text-anchor="middle" stroke="rgb(0,0,0)" opacity="1" fill="rgb(0,0,0)" stroke-opacity="1" fill-opacity="1" font-size="9.6" font-weight="normal" font-style="normal">
                  <tspan id="Fig:densplot_01.ticklabels.bottom.panel.1.1.1.2.tspan.1" dy="7.18" x="0">6</tspan>
                </text>
              </g>
            </g>
            <g id="Fig:densplot_01.ticklabels.bottom.panel.1.1.1.3" transform="translate(156.43, 30.85)" stroke-width="0.1">
              <g id="Fig:densplot_01.ticklabels.bottom.panel.1.1.1.3.scale" transform="scale(1, -1)">
                <text x="0" y="0" id="Fig:densplot_01.ticklabels.bottom.panel.1.1.1.3.text" text-anchor="middle" stroke="rgb(0,0,0)" opacity="1" fill="rgb(0,0,0)" stroke-opacity="1" fill-opacity="1" font-size="9.6" font-weight="normal" font-style="normal">
                  <tspan id="Fig:densplot_01.ticklabels.bottom.panel.1.1.1.3.tspan.1" dy="7.18" x="0">8</tspan>
                </text>
              </g>
            </g>
            <g id="Fig:densplot_01.ticklabels.bottom.panel.1.1.1.4" transform="translate(199.73, 30.85)" stroke-width="0.1">
              <g id="Fig:densplot_01.ticklabels.bottom.panel.1.1.1.4.scale" transform="scale(1, -1)">
                <text x="0" y="0" id="Fig:densplot_01.ticklabels.bottom.panel.1.1.1.4.text" text-anchor="middle" stroke="rgb(0,0,0)" opacity="1" fill="rgb(0,0,0)" stroke-opacity="1" fill-opacity="1" font-size="9.6" font-weight="normal" font-style="normal">
                  <tspan id="Fig:densplot_01.ticklabels.bottom.panel.1.1.1.4.tspan.1" dy="7.18" x="0">10</tspan>
                </text>
              </g>
            </g>
            <g id="Fig:densplot_01.ticklabels.bottom.panel.1.1.1.5" transform="translate(243.03, 30.85)" stroke-width="0.1">
              <g id="Fig:densplot_01.ticklabels.bottom.panel.1.1.1.5.scale" transform="scale(1, -1)">
                <text x="0" y="0" id="Fig:densplot_01.ticklabels.bottom.panel.1.1.1.5.text" text-anchor="middle" stroke="rgb(0,0,0)" opacity="1" fill="rgb(0,0,0)" stroke-opacity="1" fill-opacity="1" font-size="9.6" font-weight="normal" font-style="normal">
                  <tspan id="Fig:densplot_01.ticklabels.bottom.panel.1.1.1.5.tspan.1" dy="7.18" x="0">12</tspan>
                </text>
              </g>
            </g>
          </g>
        </g>
        <defs>
          <clipPath id="Fig:densplot_01.panel.1.1.vp.2.clipPath">
            <rect x="44.8" y="42.19" width="231.2" height="191.81" fill="none" stroke="none"/>
          </clipPath>
        </defs>
        <g id="Fig:densplot_01.panel.1.1.vp.2" clip-path="url(#Fig:densplot_01.panel.1.1.vp.2.clipPath)">
          <g id="Fig:densplot_01.xyplot.lines.group.1.panel.1.1.1">
            <polyline id="Fig:densplot_01.xyplot.lines.group.1.panel.1.1.1.1" points="59.04,53.97 59.44,53.98 59.83,53.99 60.23,54 60.63,54.01 61.02,54.02 61.42,54.04 61.82,54.07 62.21,54.1 62.61,54.14 63.01,54.18 63.4,54.24 63.8,54.31 64.19,54.4 64.59,54.51 64.99,54.64 65.38,54.79 65.78,54.98 66.18,55.19 66.57,55.46 66.97,55.77 67.37,56.13 67.76,56.55 68.16,57.03 68.56,57.58 68.95,58.23 69.35,58.98 69.75,59.82 70.14,60.78 70.54,61.85 70.94,63.06 71.33,64.41 71.73,65.93 72.13,67.61 72.52,69.47 72.92,71.5 73.32,73.71 73.71,76.12 74.11,78.78 74.51,81.64 74.9,84.71 75.3,87.99 75.7,91.48 76.09,95.19 76.49,99.14 76.89,103.29 77.28,107.64 77.68,112.16 78.08,116.85 78.47,121.7 78.87,126.7 79.27,131.82 79.66,137.03 80.06,142.31 80.46,147.62 80.85,152.95 81.25,158.27 81.65,163.54 82.04,168.73 82.44,173.81 82.84,178.76 83.23,183.56 83.63,188.16 84.03,192.5 84.42,196.6 84.82,200.44 85.22,204 85.61,207.26 86.01,210.21 86.41,212.76 86.8,214.97 87.2,216.84 87.6,218.37 87.99,219.55 88.39,220.39 88.79,220.85 89.18,220.94 89.58,220.72 89.98,220.2 90.37,219.38 90.77,218.28 91.17,216.91 91.56,215.25 91.96,213.39 92.36,211.32 92.75,209.08 93.15,206.67 93.55,204.13 93.94,201.44 94.34,198.67 94.74,195.83 95.13,192.92 95.53,189.99 95.93,187.03 96.32,184.06 96.72,181.11 97.12,178.19 97.51,175.31 97.91,172.47 98.31,169.69 98.7,166.99 99.1,164.37 99.5,161.82 99.89,159.36 100.29,156.99 100.69,154.7 101.08,152.52 101.48,150.43 101.88,148.44 102.27,146.54 102.67,144.72 103.07,142.99 103.46,141.34 103.86,139.8 104.26,138.33 104.65,136.93 105.05,135.61 105.45,134.35 105.84,133.16 106.24,132.04 106.64,130.99 107.03,129.98 107.43,129.03 107.83,128.13 108.22,127.27 108.62,126.46 109.02,125.7 109.41,124.97 109.81,124.27 110.21,123.61 110.6,122.97 111,122.36 111.4,121.78 111.79,121.22 112.19,120.67 112.59,120.15 112.98,119.64 113.38,119.14 113.77,118.65 114.17,118.18 114.57,117.71 114.96,117.25 115.36,116.8 115.76,116.36 116.15,115.92 116.55,115.49 116.95,115.06 117.34,114.65 117.74,114.23 118.14,113.83 118.53,113.43 118.93,113.04 119.33,112.66 119.72,112.29 120.12,111.92 120.52,111.57 120.91,111.23 121.31,110.91 121.71,110.59 122.1,110.29 122.5,110 122.9,109.73 123.29,109.47 123.69,109.24 124.09,109.01 124.48,108.8 124.88,108.61 125.28,108.44 125.67,108.28 126.07,108.14 126.47,108.02 126.86,107.92 127.26,107.83 127.66,107.76 128.05,107.7 128.45,107.67 128.85,107.65 129.24,107.64 129.64,107.65 130.04,107.67 130.43,107.71 130.83,107.76 131.23,107.83 131.62,107.9 132.02,107.99 132.42,108.08 132.81,108.18 133.21,108.29 133.61,108.4 134,108.51 134.4,108.63 134.8,108.75 135.19,108.86 135.59,108.97 135.99,109.08 136.38,109.18 136.78,109.27 137.18,109.36 137.57,109.44 137.97,109.51 138.37,109.57 138.76,109.62 139.16,109.67 139.56,109.7 139.95,109.74 140.35,109.76 140.75,109.78 141.14,109.79 141.54,109.8 141.94,109.81 142.33,109.82 142.73,109.83 143.13,109.83 143.52,109.84 143.92,109.85 144.32,109.86 144.71,109.88 145.11,109.89 145.51,109.91 145.9,109.93 146.3,109.95 146.7,109.96 147.09,109.98 147.49,110 147.89,110.02 148.28,110.03 148.68,110.05 149.08,110.06 149.47,110.06 149.87,110.07 150.27,110.07 150.66,110.06 151.06,110.05 151.46,110.04 151.85,110.03 152.25,110.01 152.65,109.99 153.04,109.96 153.44,109.94 153.84,109.91 154.23,109.89 154.63,109.86 155.03,109.83 155.42,109.81 155.82,109.78 156.22,109.76 156.61,109.74 157.01,109.72 157.41,109.71 157.8,109.7 158.2,109.69 158.6,109.69 158.99,109.69 159.39,109.7 159.79,109.72 160.18,109.73 160.58,109.76 160.98,109.78 161.37,109.81 161.77,109.85 162.17,109.89 162.56,109.93 162.96,109.97 163.35,110.01 163.75,110.05 164.15,110.08 164.54,110.12 164.94,110.15 165.34,110.18 165.73,110.2 166.13,110.22 166.53,110.22 166.92,110.22 167.32,110.21 167.72,110.19 168.11,110.16 168.51,110.11 168.91,110.06 169.3,109.99 169.7,109.9 170.1,109.81 170.49,109.7 170.89,109.57 171.29,109.43 171.68,109.28 172.08,109.11 172.48,108.93 172.87,108.74 173.27,108.53 173.67,108.32 174.06,108.09 174.46,107.86 174.86,107.61 175.25,107.36 175.65,107.11 176.05,106.84 176.44,106.58 176.84,106.31 177.24,106.04 177.63,105.77 178.03,105.5 178.43,105.23 178.82,104.97 179.22,104.7 179.62,104.44 180.01,104.19 180.41,103.94 180.81,103.69 181.2,103.45 181.6,103.21 182,102.98 182.39,102.75 182.79,102.53 183.19,102.3 183.58,102.08 183.98,101.86 184.38,101.64 184.77,101.42 185.17,101.2 185.57,100.97 185.96,100.73 186.36,100.5 186.76,100.25 187.15,100 187.55,99.74 187.95,99.46 188.34,99.18 188.74,98.89 189.14,98.59 189.53,98.27 189.93,97.95 190.33,97.61 190.72,97.27 191.12,96.91 191.52,96.54 191.91,96.16 192.31,95.78 192.71,95.38 193.1,94.98 193.5,94.57 193.9,94.15 194.29,93.73 194.69,93.31 195.09,92.88 195.48,92.44 195.88,92.01 196.28,91.57 196.67,91.14 197.07,90.7 197.47,90.26 197.86,89.83 198.26,89.39 198.66,88.96 199.05,88.53 199.45,88.1 199.85,87.67 200.24,87.25 200.64,86.84 201.04,86.43 201.43,86.02 201.83,85.62 202.23,85.23 202.62,84.84 203.02,84.46 203.42,84.09 203.81,83.73 204.21,83.37 204.61,83.03 205,82.69 205.4,82.36 205.8,82.04 206.19,81.72 206.59,81.42 206.99,81.12 207.38,80.82 207.78,80.54 208.18,80.26 208.57,79.98 208.97,79.71 209.37,79.45 209.76,79.19 210.16,78.93 210.56,78.68 210.95,78.43 211.35,78.18 211.75,77.94 212.14,77.7 212.54,77.46 212.93,77.22 213.33,76.99 213.73,76.76 214.12,76.53 214.52,76.3 214.92,76.07 215.31,75.85 215.71,75.63 216.11,75.41 216.5,75.19 216.9,74.97 217.3,74.75 217.69,74.54 218.09,74.32 218.49,74.11 218.88,73.89 219.28,73.68 219.68,73.47 220.07,73.25 220.47,73.04 220.87,72.83 221.26,72.62 221.66,72.41 222.06,72.2 222.45,71.99 222.85,71.78 223.25,71.57 223.64,71.36 224.04,71.15 224.44,70.94 224.83,70.73 225.23,70.52 225.63,70.31 226.02,70.1 226.42,69.89 226.82,69.68 227.21,69.47 227.61,69.26 228.01,69.05 228.4,68.84 228.8,68.64 229.2,68.43 229.59,68.23 229.99,68.02 230.39,67.82 230.78,67.62 231.18,67.42 231.58,67.23 231.97,67.04 232.37,66.85 232.77,66.67 233.16,66.49 233.56,66.31 233.96,66.14 234.35,65.97 234.75,65.81 235.15,65.65 235.54,65.49 235.94,65.34 236.34,65.18 236.73,65.03 237.13,64.88 237.53,64.74 237.92,64.59 238.32,64.43 238.72,64.28 239.11,64.12 239.51,63.95 239.91,63.78 240.3,63.59 240.7,63.4 241.1,63.2 241.49,62.99 241.89,62.76 242.29,62.52 242.68,62.27 243.08,62.01 243.48,61.73 243.87,61.44 244.27,61.15 244.67,60.84 245.06,60.52 245.46,60.19 245.86,59.86 246.25,59.53 246.65,59.19 247.05,58.86 247.44,58.53 247.84,58.2 248.24,57.88 248.63,57.56 249.03,57.26 249.43,56.97 249.82,56.69 250.22,56.42 250.62,56.17 251.01,55.94 251.41,55.72 251.81,55.51 252.2,55.33 252.6,55.16 253,55 253.39,54.86 253.79,54.74 254.19,54.62 254.58,54.53 254.98,54.44 255.38,54.36 255.77,54.3 256.17,54.24 256.57,54.19 256.96,54.15 257.36,54.11 257.76,54.09 258.15,54.06 258.55,54.04 258.95,54.02 259.34,54.01 259.74,54 260.14,53.99 260.53,53.98 260.93,53.98 261.33,53.97 261.72,53.97" stroke-dasharray="none" stroke="rgb(31,120,180)" stroke-width="0.75" opacity="1" stroke-opacity="1" fill="none"/>
          </g>
          <g id="Fig:densplot_01.xyplot.lines.group.2.panel.1.1.1">
            <polyline id="Fig:densplot_01.xyplot.lines.group.2.panel.1.1.1.1" points="59,53.98 59.4,53.98 59.79,53.99 60.19,54.01 60.59,54.02 60.98,54.04 61.38,54.06 61.78,54.09 62.18,54.13 62.57,54.18 62.97,54.24 63.37,54.31 63.76,54.4 64.16,54.51 64.56,54.64 64.95,54.8 65.35,54.99 65.75,55.22 66.14,55.49 66.54,55.8 66.94,56.17 67.33,56.62 67.73,57.13 68.13,57.72 68.53,58.4 68.92,59.17 69.32,60.05 69.72,61.08 70.11,62.23 70.51,63.52 70.91,64.96 71.3,66.56 71.7,68.33 72.1,70.32 72.49,72.51 72.89,74.89 73.29,77.49 73.68,80.29 74.08,83.31 74.48,86.6 74.88,90.11 75.27,93.85 75.67,97.8 76.07,101.96 76.46,106.33 76.86,110.92 77.26,115.7 77.65,120.65 78.05,125.73 78.45,130.94 78.84,136.26 79.24,141.66 79.64,147.12 80.03,152.59 80.43,158.04 80.83,163.46 81.23,168.81 81.62,174.06 82.02,179.14 82.42,184.06 82.81,188.78 83.21,193.27 83.61,197.53 84,201.51 84.4,205.14 84.8,208.45 85.19,211.43 85.59,214.07 85.99,216.36 86.38,218.3 86.78,219.81 87.18,220.94 87.58,221.71 87.97,222.14 88.37,222.22 88.77,221.97 89.16,221.35 89.56,220.41 89.96,219.18 90.35,217.69 90.75,215.96 91.15,213.99 91.54,211.81 91.94,209.42 92.34,206.88 92.73,204.21 93.13,201.43 93.53,198.56 93.93,195.62 94.32,192.63 94.72,189.61 95.12,186.59 95.51,183.58 95.91,180.59 96.31,177.63 96.7,174.75 97.1,171.92 97.5,169.17 97.89,166.49 98.29,163.9 98.69,161.4 99.08,159 99.48,156.7 99.88,154.5 100.28,152.39 100.67,150.38 101.07,148.45 101.47,146.62 101.86,144.89 102.26,143.23 102.66,141.65 103.05,140.14 103.45,138.7 103.85,137.32 104.24,136.02 104.64,134.76 105.04,133.56 105.43,132.4 105.83,131.28 106.23,130.21 106.63,129.18 107.02,128.19 107.42,127.24 107.82,126.31 108.21,125.41 108.61,124.55 109.01,123.72 109.4,122.91 109.8,122.14 110.2,121.39 110.59,120.66 110.99,119.97 111.39,119.3 111.78,118.67 112.18,118.05 112.58,117.47 112.98,116.91 113.37,116.37 113.77,115.87 114.17,115.39 114.56,114.94 114.96,114.51 115.36,114.1 115.75,113.72 116.15,113.35 116.55,113.02 116.94,112.7 117.34,112.4 117.74,112.11 118.13,111.85 118.53,111.59 118.93,111.36 119.33,111.13 119.72,110.91 120.12,110.7 120.52,110.5 120.91,110.31 121.31,110.12 121.71,109.94 122.1,109.77 122.5,109.59 122.9,109.43 123.29,109.26 123.69,109.1 124.09,108.94 124.48,108.79 124.88,108.64 125.28,108.49 125.68,108.35 126.07,108.22 126.47,108.1 126.87,107.98 127.26,107.87 127.66,107.77 128.06,107.68 128.45,107.6 128.85,107.53 129.25,107.47 129.64,107.43 130.04,107.39 130.44,107.37 130.83,107.36 131.23,107.36 131.63,107.37 132.03,107.39 132.42,107.42 132.82,107.46 133.22,107.51 133.61,107.57 134.01,107.63 134.41,107.69 134.8,107.76 135.2,107.83 135.6,107.9 135.99,107.98 136.39,108.05 136.79,108.12 137.18,108.18 137.58,108.25 137.98,108.31 138.38,108.37 138.77,108.42 139.17,108.47 139.57,108.51 139.96,108.56 140.36,108.6 140.76,108.64 141.15,108.67 141.55,108.71 141.95,108.74 142.34,108.78 142.74,108.82 143.14,108.86 143.53,108.9 143.93,108.94 144.33,108.99 144.73,109.04 145.12,109.09 145.52,109.14 145.92,109.2 146.31,109.25 146.71,109.31 147.11,109.36 147.5,109.41 147.9,109.46 148.3,109.51 148.69,109.55 149.09,109.59 149.49,109.62 149.88,109.65 150.28,109.67 150.68,109.68 151.08,109.68 151.47,109.68 151.87,109.68 152.27,109.66 152.66,109.65 153.06,109.62 153.46,109.6 153.85,109.57 154.25,109.54 154.65,109.51 155.04,109.48 155.44,109.46 155.84,109.43 156.23,109.41 156.63,109.39 157.03,109.38 157.43,109.37 157.82,109.36 158.22,109.37 158.62,109.38 159.01,109.39 159.41,109.41 159.81,109.44 160.2,109.48 160.6,109.52 161,109.57 161.39,109.63 161.79,109.69 162.19,109.75 162.58,109.83 162.98,109.9 163.38,109.98 163.78,110.06 164.17,110.14 164.57,110.23 164.97,110.3 165.36,110.38 165.76,110.45 166.16,110.51 166.55,110.56 166.95,110.61 167.35,110.64 167.74,110.65 168.14,110.65 168.54,110.63 168.93,110.59 169.33,110.53 169.73,110.46 170.13,110.36 170.52,110.25 170.92,110.11 171.32,109.95 171.71,109.78 172.11,109.58 172.51,109.37 172.9,109.15 173.3,108.91 173.7,108.65 174.09,108.38 174.49,108.11 174.89,107.82 175.28,107.53 175.68,107.22 176.08,106.92 176.48,106.6 176.87,106.29 177.27,105.97 177.67,105.64 178.06,105.32 178.46,104.99 178.86,104.67 179.25,104.34 179.65,104.02 180.05,103.7 180.44,103.38 180.84,103.07 181.24,102.76 181.63,102.45 182.03,102.16 182.43,101.86 182.83,101.58 183.22,101.3 183.62,101.02 184.02,100.76 184.41,100.5 184.81,100.24 185.21,100 185.6,99.75 186,99.52 186.4,99.28 186.79,99.05 187.19,98.83 187.59,98.6 187.98,98.37 188.38,98.14 188.78,97.91 189.18,97.68 189.57,97.44 189.97,97.19 190.37,96.94 190.76,96.67 191.16,96.4 191.56,96.12 191.95,95.83 192.35,95.53 192.75,95.22 193.14,94.89 193.54,94.56 193.94,94.22 194.33,93.86 194.73,93.5 195.13,93.12 195.53,92.74 195.92,92.35 196.32,91.96 196.72,91.55 197.11,91.15 197.51,90.73 197.91,90.32 198.3,89.9 198.7,89.48 199.1,89.06 199.49,88.64 199.89,88.22 200.29,87.8 200.68,87.38 201.08,86.96 201.48,86.54 201.88,86.13 202.27,85.72 202.67,85.31 203.07,84.9 203.46,84.5 203.86,84.1 204.26,83.7 204.65,83.31 205.05,82.92 205.45,82.54 205.84,82.15 206.24,81.78 206.64,81.41 207.03,81.04 207.43,80.68 207.83,80.33 208.23,79.98 208.62,79.64 209.02,79.31 209.42,78.98 209.81,78.66 210.21,78.35 210.61,78.05 211,77.76 211.4,77.47 211.8,77.19 212.19,76.92 212.59,76.66 212.99,76.41 213.38,76.16 213.78,75.92 214.18,75.69 214.58,75.46 214.97,75.25 215.37,75.04 215.77,74.83 216.16,74.63 216.56,74.43 216.96,74.24 217.35,74.05 217.75,73.86 218.15,73.68 218.54,73.5 218.94,73.32 219.34,73.14 219.73,72.96 220.13,72.78 220.53,72.61 220.93,72.43 221.32,72.25 221.72,72.07 222.12,71.89 222.51,71.71 222.91,71.52 223.31,71.34 223.7,71.15 224.1,70.97 224.5,70.78 224.89,70.59 225.29,70.4 225.69,70.2 226.08,70.01 226.48,69.82 226.88,69.62 227.28,69.42 227.67,69.23 228.07,69.03 228.47,68.84 228.86,68.64 229.26,68.45 229.66,68.26 230.05,68.07 230.45,67.89 230.85,67.7 231.24,67.52 231.64,67.35 232.04,67.18 232.43,67.01 232.83,66.85 233.23,66.69 233.63,66.53 234.02,66.38 234.42,66.24 234.82,66.09 235.21,65.95 235.61,65.81 236.01,65.68 236.4,65.54 236.8,65.4 237.2,65.27 237.59,65.13 237.99,64.98 238.39,64.83 238.78,64.68 239.18,64.52 239.58,64.35 239.98,64.17 240.37,63.98 240.77,63.77 241.17,63.56 241.56,63.33 241.96,63.09 242.36,62.84 242.75,62.57 243.15,62.28 243.55,61.99 243.94,61.68 244.34,61.37 244.74,61.04 245.13,60.7 245.53,60.36 245.93,60.01 246.33,59.66 246.72,59.31 247.12,58.96 247.52,58.61 247.91,58.27 248.31,57.94 248.71,57.61 249.1,57.3 249.5,57 249.9,56.71 250.29,56.44 250.69,56.18 251.09,55.94 251.48,55.72 251.88,55.52 252.28,55.33 252.68,55.16 253.07,55 253.47,54.86 253.87,54.73 254.26,54.62 254.66,54.52 255.06,54.44 255.45,54.36 255.85,54.29 256.25,54.24 256.64,54.19 257.04,54.15 257.44,54.11 257.83,54.08 258.23,54.06 258.63,54.04 259.03,54.02 259.42,54.01 259.82,54 260.22,53.99 260.61,53.98 261.01,53.98 261.41,53.97 261.8,53.97" stroke-dasharray="none" stroke="rgb(31,120,180)" stroke-width="0.75" opacity="1" stroke-opacity="1" fill="none"/>
          </g>
          <g id="Fig:densplot_01.xyplot.lines.group.3.panel.1.1.1">
            <polyline id="Fig:densplot_01.xyplot.lines.group.3.panel.1.1.1.1" points="59.11,53.97 59.51,53.98 59.91,53.99 60.3,54 60.7,54.01 61.1,54.03 61.49,54.05 61.89,54.08 62.29,54.12 62.68,54.16 63.08,54.21 63.47,54.28 63.87,54.36 64.27,54.45 64.66,54.58 65.06,54.72 65.46,54.89 65.85,55.1 66.25,55.34 66.65,55.63 67.04,55.98 67.44,56.38 67.84,56.85 68.23,57.39 68.63,58.01 69.03,58.72 69.42,59.55 69.82,60.49 70.22,61.56 70.61,62.76 71.01,64.1 71.41,65.59 71.8,67.26 72.2,69.13 72.6,71.18 72.99,73.42 73.39,75.87 73.79,78.52 74.18,81.4 74.58,84.53 74.97,87.89 75.37,91.46 75.77,95.25 76.16,99.26 76.56,103.48 76.96,107.94 77.35,112.59 77.75,117.4 78.15,122.37 78.54,127.48 78.94,132.71 79.34,138.05 79.73,143.44 80.13,148.87 80.53,154.31 80.92,159.72 81.32,165.08 81.72,170.35 82.11,175.48 82.51,180.47 82.91,185.27 83.3,189.86 83.7,194.23 84.1,198.31 84.49,202.07 84.89,205.53 85.29,208.67 85.68,211.48 86.08,213.95 86.47,216.04 86.87,217.72 87.27,219.04 87.66,220.01 88.06,220.63 88.46,220.9 88.85,220.84 89.25,220.38 89.65,219.63 90.04,218.58 90.44,217.27 90.84,215.71 91.23,213.91 91.63,211.86 92.03,209.62 92.42,207.22 92.82,204.67 93.22,202 93.61,199.23 94.01,196.37 94.41,193.44 94.8,190.48 95.2,187.49 95.6,184.5 95.99,181.51 96.39,178.54 96.78,175.62 97.18,172.75 97.58,169.93 97.97,167.18 98.37,164.5 98.77,161.9 99.16,159.39 99.56,156.98 99.96,154.65 100.35,152.41 100.75,150.25 101.15,148.19 101.54,146.23 101.94,144.36 102.34,142.57 102.73,140.86 103.13,139.23 103.53,137.68 103.92,136.21 104.32,134.82 104.72,133.5 105.11,132.24 105.51,131.04 105.91,129.9 106.3,128.83 106.7,127.82 107.1,126.86 107.49,125.95 107.89,125.09 108.28,124.28 108.68,123.5 109.08,122.78 109.47,122.09 109.87,121.44 110.27,120.81 110.66,120.22 111.06,119.65 111.46,119.11 111.85,118.59 112.25,118.09 112.65,117.61 113.04,117.13 113.44,116.67 113.84,116.22 114.23,115.78 114.63,115.34 115.03,114.91 115.42,114.49 115.82,114.07 116.22,113.66 116.61,113.26 117.01,112.86 117.41,112.47 117.8,112.09 118.2,111.72 118.59,111.37 118.99,111.03 119.39,110.71 119.78,110.4 120.18,110.11 120.58,109.84 120.97,109.59 121.37,109.36 121.77,109.15 122.16,108.97 122.56,108.8 122.96,108.66 123.35,108.53 123.75,108.43 124.15,108.35 124.54,108.28 124.94,108.23 125.34,108.19 125.73,108.17 126.13,108.16 126.53,108.16 126.92,108.17 127.32,108.19 127.72,108.22 128.11,108.25 128.51,108.28 128.91,108.32 129.3,108.36 129.7,108.41 130.09,108.45 130.49,108.5 130.89,108.55 131.28,108.6 131.68,108.64 132.08,108.69 132.47,108.74 132.87,108.78 133.27,108.83 133.66,108.87 134.06,108.92 134.46,108.96 134.85,109 135.25,109.04 135.65,109.08 136.04,109.12 136.44,109.15 136.84,109.19 137.23,109.22 137.63,109.26 138.03,109.29 138.42,109.32 138.82,109.36 139.22,109.39 139.61,109.42 140.01,109.45 140.41,109.48 140.8,109.51 141.2,109.54 141.59,109.57 141.99,109.6 142.39,109.63 142.78,109.66 143.18,109.69 143.58,109.71 143.97,109.74 144.37,109.76 144.77,109.79 145.16,109.81 145.56,109.83 145.96,109.85 146.35,109.87 146.75,109.89 147.15,109.91 147.54,109.92 147.94,109.93 148.34,109.95 148.73,109.96 149.13,109.97 149.53,109.98 149.92,109.99 150.32,110 150.72,110.01 151.11,110.03 151.51,110.04 151.9,110.06 152.3,110.07 152.7,110.09 153.09,110.11 153.49,110.14 153.89,110.16 154.28,110.19 154.68,110.23 155.08,110.26 155.47,110.3 155.87,110.35 156.27,110.39 156.66,110.44 157.06,110.5 157.46,110.55 157.85,110.61 158.25,110.67 158.65,110.73 159.04,110.79 159.44,110.85 159.84,110.91 160.23,110.97 160.63,111.02 161.03,111.08 161.42,111.13 161.82,111.18 162.22,111.22 162.61,111.26 163.01,111.3 163.4,111.32 163.8,111.35 164.2,111.36 164.59,111.37 164.99,111.37 165.39,111.37 165.78,111.35 166.18,111.33 166.58,111.3 166.97,111.26 167.37,111.22 167.77,111.17 168.16,111.1 168.56,111.03 168.96,110.95 169.35,110.86 169.75,110.76 170.15,110.66 170.54,110.54 170.94,110.41 171.34,110.27 171.73,110.12 172.13,109.96 172.53,109.79 172.92,109.61 173.32,109.43 173.71,109.23 174.11,109.03 174.51,108.81 174.9,108.59 175.3,108.37 175.7,108.14 176.09,107.9 176.49,107.65 176.89,107.41 177.28,107.16 177.68,106.91 178.08,106.65 178.47,106.39 178.87,106.13 179.27,105.87 179.66,105.61 180.06,105.35 180.46,105.08 180.85,104.82 181.25,104.55 181.65,104.28 182.04,104.01 182.44,103.74 182.84,103.47 183.23,103.19 183.63,102.91 184.03,102.63 184.42,102.35 184.82,102.06 185.21,101.77 185.61,101.47 186.01,101.17 186.4,100.86 186.8,100.55 187.2,100.24 187.59,99.92 187.99,99.59 188.39,99.26 188.78,98.93 189.18,98.59 189.58,98.25 189.97,97.91 190.37,97.56 190.77,97.21 191.16,96.86 191.56,96.51 191.96,96.15 192.35,95.78 192.75,95.42 193.15,95.05 193.54,94.68 193.94,94.3 194.34,93.92 194.73,93.54 195.13,93.15 195.52,92.76 195.92,92.36 196.32,91.96 196.71,91.55 197.11,91.14 197.51,90.73 197.9,90.3 198.3,89.88 198.7,89.45 199.09,89.02 199.49,88.59 199.89,88.15 200.28,87.71 200.68,87.28 201.08,86.84 201.47,86.41 201.87,85.98 202.27,85.56 202.66,85.14 203.06,84.73 203.46,84.33 203.85,83.93 204.25,83.54 204.65,83.16 205.04,82.79 205.44,82.43 205.84,82.08 206.23,81.75 206.63,81.42 207.02,81.1 207.42,80.79 207.82,80.5 208.21,80.21 208.61,79.94 209.01,79.67 209.4,79.41 209.8,79.17 210.2,78.93 210.59,78.69 210.99,78.47 211.39,78.24 211.78,78.03 212.18,77.82 212.58,77.61 212.97,77.4 213.37,77.2 213.77,77 214.16,76.8 214.56,76.6 214.96,76.4 215.35,76.2 215.75,75.99 216.15,75.78 216.54,75.57 216.94,75.36 217.34,75.15 217.73,74.93 218.13,74.7 218.52,74.48 218.92,74.25 219.32,74.01 219.71,73.78 220.11,73.54 220.51,73.29 220.9,73.05 221.3,72.8 221.7,72.55 222.09,72.3 222.49,72.05 222.89,71.8 223.28,71.55 223.68,71.3 224.08,71.04 224.47,70.79 224.87,70.54 225.27,70.29 225.66,70.04 226.06,69.79 226.46,69.55 226.85,69.31 227.25,69.07 227.65,68.83 228.04,68.59 228.44,68.36 228.83,68.14 229.23,67.91 229.63,67.69 230.02,67.48 230.42,67.27 230.82,67.07 231.21,66.88 231.61,66.69 232.01,66.5 232.4,66.33 232.8,66.16 233.2,65.99 233.59,65.83 233.99,65.68 234.39,65.54 234.78,65.4 235.18,65.26 235.58,65.13 235.97,65 236.37,64.87 236.77,64.75 237.16,64.62 237.56,64.5 237.96,64.37 238.35,64.24 238.75,64.11 239.15,63.97 239.54,63.83 239.94,63.67 240.33,63.51 240.73,63.34 241.13,63.15 241.52,62.96 241.92,62.75 242.32,62.52 242.71,62.29 243.11,62.04 243.51,61.78 243.9,61.5 244.3,61.21 244.7,60.91 245.09,60.6 245.49,60.29 245.89,59.96 246.28,59.63 246.68,59.3 247.08,58.97 247.47,58.64 247.87,58.31 248.27,57.99 248.66,57.67 249.06,57.36 249.46,57.06 249.85,56.78 250.25,56.51 250.64,56.25 251.04,56.01 251.44,55.79 251.83,55.58 252.23,55.38 252.63,55.21 253.02,55.05 253.42,54.9 253.82,54.77 254.21,54.65 254.61,54.55 255.01,54.46 255.4,54.38 255.8,54.31 256.2,54.25 256.59,54.2 256.99,54.16 257.39,54.12 257.78,54.09 258.18,54.07 258.58,54.04 258.97,54.03 259.37,54.01 259.77,54 260.16,53.99 260.56,53.98 260.96,53.98 261.35,53.97 261.75,53.97" stroke-dasharray="none" stroke="rgb(31,120,180)" stroke-width="0.75" opacity="1" stroke-opacity="1" fill="none"/>
          </g>
          <g id="Fig:densplot_01.xyplot.lines.group.4.panel.1.1.1">
            <polyline id="Fig:densplot_01.xyplot.lines.group.4.panel.1.1.1.1" points="59.04,53.97 59.44,53.98 59.83,53.98 60.23,53.99 60.63,54 61.02,54.02 61.42,54.03 61.82,54.06 62.21,54.09 62.61,54.12 63.01,54.17 63.4,54.22 63.8,54.29 64.19,54.37 64.59,54.48 64.99,54.6 65.38,54.75 65.78,54.93 66.18,55.15 66.57,55.41 66.97,55.72 67.37,56.08 67.76,56.5 68.16,56.98 68.56,57.54 68.95,58.2 69.35,58.96 69.75,59.82 70.14,60.8 70.54,61.9 70.94,63.13 71.33,64.52 71.73,66.09 72.13,67.82 72.52,69.74 72.92,71.83 73.32,74.12 73.71,76.62 74.11,79.36 74.51,82.32 74.9,85.48 75.3,88.87 75.7,92.47 76.09,96.28 76.49,100.33 76.88,104.59 77.28,109.04 77.68,113.66 78.07,118.45 78.47,123.38 78.87,128.45 79.26,133.63 79.66,138.88 80.06,144.19 80.45,149.52 80.85,154.85 81.25,160.16 81.64,165.39 82.04,170.52 82.44,175.54 82.83,180.4 83.23,185.09 83.63,189.58 84.02,193.79 84.42,197.74 84.82,201.42 85.21,204.81 85.61,207.9 86.01,210.67 86.4,213.05 86.8,215.07 87.2,216.76 87.59,218.11 87.99,219.12 88.38,219.79 88.78,220.09 89.18,220.04 89.57,219.69 89.97,219.04 90.37,218.12 90.76,216.93 91.16,215.48 91.56,213.76 91.95,211.85 92.35,209.76 92.75,207.5 93.14,205.09 93.54,202.56 93.94,199.9 94.33,197.16 94.73,194.36 95.13,191.51 95.52,188.64 95.92,185.74 96.32,182.85 96.71,179.97 97.11,177.12 97.51,174.31 97.9,171.54 98.3,168.83 98.7,166.19 99.09,163.62 99.49,161.13 99.89,158.71 100.28,156.38 100.68,154.12 101.07,151.95 101.47,149.88 101.87,147.9 102.26,145.99 102.66,144.17 103.06,142.42 103.45,140.76 103.85,139.18 104.25,137.68 104.64,136.25 105.04,134.89 105.44,133.6 105.83,132.37 106.23,131.21 106.63,130.11 107.02,129.07 107.42,128.08 107.82,127.14 108.21,126.24 108.61,125.39 109.01,124.59 109.4,123.82 109.8,123.09 110.2,122.39 110.59,121.72 110.99,121.08 111.39,120.46 111.78,119.87 112.18,119.3 112.58,118.74 112.97,118.21 113.37,117.69 113.76,117.19 114.16,116.7 114.56,116.23 114.95,115.77 115.35,115.33 115.75,114.9 116.14,114.49 116.54,114.09 116.94,113.7 117.33,113.33 117.73,112.98 118.13,112.64 118.52,112.31 118.92,112 119.32,111.7 119.71,111.41 120.11,111.14 120.51,110.88 120.9,110.63 121.3,110.4 121.7,110.18 122.09,109.97 122.49,109.77 122.89,109.59 123.28,109.41 123.68,109.25 124.08,109.1 124.47,108.97 124.87,108.84 125.27,108.73 125.66,108.63 126.06,108.55 126.45,108.48 126.85,108.42 127.25,108.38 127.64,108.34 128.04,108.32 128.44,108.32 128.83,108.33 129.23,108.34 129.63,108.37 130.02,108.41 130.42,108.46 130.82,108.52 131.21,108.58 131.61,108.65 132.01,108.73 132.4,108.81 132.8,108.89 133.2,108.98 133.59,109.06 133.99,109.15 134.39,109.23 134.78,109.31 135.18,109.39 135.58,109.46 135.97,109.53 136.37,109.6 136.77,109.66 137.16,109.71 137.56,109.76 137.96,109.8 138.35,109.83 138.75,109.86 139.14,109.88 139.54,109.89 139.94,109.9 140.33,109.89 140.73,109.89 141.13,109.87 141.52,109.85 141.92,109.82 142.32,109.79 142.71,109.75 143.11,109.71 143.51,109.66 143.9,109.61 144.3,109.56 144.7,109.51 145.09,109.46 145.49,109.4 145.89,109.35 146.28,109.3 146.68,109.24 147.08,109.19 147.47,109.15 147.87,109.1 148.27,109.06 148.66,109.03 149.06,109 149.46,108.97 149.85,108.95 150.25,108.94 150.64,108.93 151.04,108.93 151.44,108.94 151.83,108.96 152.23,108.98 152.63,109.02 153.02,109.07 153.42,109.13 153.82,109.2 154.21,109.28 154.61,109.37 155.01,109.48 155.4,109.6 155.8,109.73 156.2,109.87 156.59,110.03 156.99,110.19 157.39,110.36 157.78,110.54 158.18,110.73 158.58,110.91 158.97,111.1 159.37,111.29 159.77,111.47 160.16,111.64 160.56,111.81 160.96,111.96 161.35,112.09 161.75,112.21 162.15,112.3 162.54,112.38 162.94,112.43 163.33,112.45 163.73,112.45 164.13,112.42 164.52,112.37 164.92,112.3 165.32,112.2 165.71,112.07 166.11,111.92 166.51,111.76 166.9,111.58 167.3,111.39 167.7,111.19 168.09,110.98 168.49,110.76 168.89,110.55 169.28,110.33 169.68,110.11 170.08,109.9 170.47,109.69 170.87,109.49 171.27,109.3 171.66,109.11 172.06,108.93 172.46,108.76 172.85,108.6 173.25,108.44 173.65,108.29 174.04,108.14 174.44,107.99 174.84,107.84 175.23,107.7 175.63,107.55 176.02,107.39 176.42,107.23 176.82,107.06 177.21,106.88 177.61,106.69 178.01,106.49 178.4,106.28 178.8,106.06 179.2,105.82 179.59,105.57 179.99,105.31 180.39,105.04 180.78,104.75 181.18,104.46 181.58,104.15 181.97,103.84 182.37,103.52 182.77,103.19 183.16,102.85 183.56,102.52 183.96,102.18 184.35,101.84 184.75,101.5 185.15,101.17 185.54,100.83 185.94,100.5 186.34,100.17 186.73,99.84 187.13,99.52 187.53,99.2 187.92,98.88 188.32,98.56 188.71,98.25 189.11,97.93 189.51,97.62 189.9,97.31 190.3,96.99 190.7,96.67 191.09,96.35 191.49,96.03 191.89,95.7 192.28,95.36 192.68,95.03 193.08,94.68 193.47,94.33 193.87,93.98 194.27,93.62 194.66,93.25 195.06,92.89 195.46,92.51 195.85,92.13 196.25,91.75 196.65,91.36 197.04,90.97 197.44,90.58 197.84,90.19 198.23,89.79 198.63,89.39 199.03,88.99 199.42,88.59 199.82,88.19 200.22,87.78 200.61,87.38 201.01,86.97 201.4,86.57 201.8,86.17 202.2,85.76 202.59,85.36 202.99,84.96 203.39,84.56 203.78,84.17 204.18,83.78 204.58,83.39 204.97,83.01 205.37,82.63 205.77,82.26 206.16,81.9 206.56,81.54 206.96,81.19 207.35,80.85 207.75,80.52 208.15,80.19 208.54,79.88 208.94,79.57 209.34,79.27 209.73,78.99 210.13,78.71 210.53,78.44 210.92,78.18 211.32,77.93 211.72,77.69 212.11,77.46 212.51,77.24 212.9,77.02 213.3,76.81 213.7,76.61 214.09,76.41 214.49,76.21 214.89,76.02 215.28,75.83 215.68,75.64 216.08,75.46 216.47,75.27 216.87,75.08 217.27,74.88 217.66,74.68 218.06,74.48 218.46,74.27 218.85,74.06 219.25,73.84 219.65,73.62 220.04,73.39 220.44,73.15 220.84,72.91 221.23,72.67 221.63,72.42 222.03,72.16 222.42,71.91 222.82,71.65 223.22,71.39 223.61,71.12 224.01,70.86 224.41,70.6 224.8,70.34 225.2,70.09 225.59,69.83 225.99,69.59 226.39,69.34 226.78,69.1 227.18,68.87 227.58,68.64 227.97,68.42 228.37,68.21 228.77,68 229.16,67.8 229.56,67.6 229.96,67.41 230.35,67.23 230.75,67.06 231.15,66.89 231.54,66.73 231.94,66.57 232.34,66.42 232.73,66.27 233.13,66.13 233.53,65.99 233.92,65.86 234.32,65.72 234.72,65.59 235.11,65.46 235.51,65.33 235.91,65.21 236.3,65.08 236.7,64.95 237.1,64.82 237.49,64.68 237.89,64.54 238.28,64.4 238.68,64.25 239.08,64.09 239.47,63.93 239.87,63.76 240.27,63.57 240.66,63.38 241.06,63.18 241.46,62.97 241.85,62.74 242.25,62.51 242.65,62.26 243.04,61.99 243.44,61.72 243.84,61.44 244.23,61.15 244.63,60.85 245.03,60.53 245.42,60.22 245.82,59.89 246.22,59.57 246.61,59.24 247.01,58.91 247.41,58.59 247.8,58.26 248.2,57.95 248.6,57.64 248.99,57.34 249.39,57.04 249.79,56.77 250.18,56.5 250.58,56.25 250.97,56.01 251.37,55.79 251.77,55.58 252.16,55.39 252.56,55.22 252.96,55.06 253.35,54.91 253.75,54.78 254.15,54.67 254.54,54.56 254.94,54.47 255.34,54.39 255.73,54.32 256.13,54.26 256.53,54.21 256.92,54.17 257.32,54.13 257.72,54.1 258.11,54.07 258.51,54.05 258.91,54.03 259.3,54.01 259.7,54 260.1,53.99 260.49,53.98 260.89,53.98 261.29,53.97 261.68,53.97" stroke-dasharray="none" stroke="rgb(31,120,180)" stroke-width="0.75" opacity="1" stroke-opacity="1" fill="none"/>
          </g>
          <g id="Fig:densplot_01.xyplot.lines.group.5.panel.1.1.1">
            <polyline id="Fig:densplot_01.xyplot.lines.group.5.panel.1.1.1.1" points="59.07,53.97 59.47,53.98 59.86,53.99 60.26,54 60.65,54.01 61.05,54.03 61.45,54.05 61.84,54.08 62.24,54.11 62.64,54.15 63.03,54.2 63.43,54.26 63.83,54.34 64.22,54.44 64.62,54.55 65.02,54.69 65.41,54.86 65.81,55.06 66.21,55.29 66.6,55.57 67,55.9 67.4,56.29 67.79,56.74 68.19,57.26 68.58,57.86 68.98,58.54 69.38,59.34 69.77,60.25 70.17,61.27 70.57,62.42 70.96,63.7 71.36,65.13 71.76,66.75 72.15,68.54 72.55,70.51 72.95,72.66 73.34,75.01 73.74,77.55 74.14,80.34 74.53,83.35 74.93,86.58 75.33,90.01 75.72,93.66 76.12,97.53 76.51,101.61 76.91,105.92 77.31,110.41 77.7,115.07 78.1,119.89 78.5,124.85 78.89,129.93 79.29,135.13 79.69,140.4 80.08,145.71 80.48,151.04 80.88,156.36 81.27,161.65 81.67,166.85 82.07,171.95 82.46,176.92 82.86,181.73 83.26,186.36 83.65,190.78 84.05,194.93 84.44,198.8 84.84,202.38 85.24,205.68 85.63,208.66 86.03,211.32 86.43,213.61 86.82,215.52 87.22,217.09 87.62,218.32 88.01,219.22 88.41,219.77 88.81,219.97 89.2,219.81 89.6,219.35 90,218.6 90.39,217.57 90.79,216.29 91.19,214.75 91.58,212.96 91.98,210.97 92.37,208.8 92.77,206.48 93.17,204.01 93.56,201.43 93.96,198.73 94.36,195.95 94.75,193.11 95.15,190.23 95.55,187.33 95.94,184.41 96.34,181.5 96.74,178.61 97.13,175.75 97.53,172.93 97.93,170.15 98.32,167.44 98.72,164.8 99.12,162.23 99.51,159.75 99.91,157.34 100.3,155.02 100.7,152.78 101.1,150.62 101.49,148.57 101.89,146.61 102.29,144.73 102.68,142.94 103.08,141.22 103.48,139.59 103.87,138.05 104.27,136.59 104.67,135.2 105.06,133.88 105.46,132.63 105.86,131.44 106.25,130.33 106.65,129.28 107.05,128.28 107.44,127.33 107.84,126.44 108.23,125.59 108.63,124.79 109.03,124.04 109.42,123.33 109.82,122.65 110.22,122 110.61,121.39 111.01,120.81 111.41,120.25 111.8,119.72 112.2,119.22 112.6,118.73 112.99,118.26 113.39,117.81 113.79,117.37 114.18,116.95 114.58,116.54 114.98,116.14 115.37,115.75 115.77,115.37 116.16,115 116.56,114.64 116.96,114.28 117.35,113.93 117.75,113.59 118.15,113.26 118.54,112.93 118.94,112.61 119.34,112.29 119.73,111.98 120.13,111.67 120.53,111.38 120.92,111.09 121.32,110.81 121.72,110.54 122.11,110.28 122.51,110.03 122.91,109.79 123.3,109.56 123.7,109.35 124.09,109.15 124.49,108.97 124.89,108.8 125.28,108.65 125.68,108.51 126.08,108.39 126.47,108.29 126.87,108.21 127.27,108.14 127.66,108.09 128.06,108.05 128.46,108.04 128.85,108.03 129.25,108.04 129.65,108.07 130.04,108.1 130.44,108.14 130.83,108.2 131.23,108.27 131.63,108.34 132.02,108.42 132.42,108.51 132.82,108.6 133.21,108.69 133.61,108.79 134.01,108.89 134.4,109 134.8,109.1 135.2,109.2 135.59,109.31 135.99,109.41 136.39,109.51 136.78,109.6 137.18,109.7 137.58,109.79 137.97,109.87 138.37,109.95 138.76,110.02 139.16,110.08 139.56,110.14 139.95,110.19 140.35,110.23 140.75,110.27 141.14,110.29 141.54,110.31 141.94,110.32 142.33,110.33 142.73,110.32 143.13,110.31 143.52,110.29 143.92,110.27 144.32,110.23 144.71,110.2 145.11,110.15 145.51,110.11 145.9,110.05 146.3,110 146.69,109.94 147.09,109.87 147.49,109.81 147.88,109.74 148.28,109.67 148.68,109.6 149.07,109.53 149.47,109.47 149.87,109.4 150.26,109.34 150.66,109.28 151.06,109.23 151.45,109.18 151.85,109.14 152.25,109.11 152.64,109.08 153.04,109.06 153.44,109.06 153.83,109.06 154.23,109.08 154.62,109.11 155.02,109.14 155.42,109.19 155.81,109.25 156.21,109.32 156.61,109.4 157,109.49 157.4,109.59 157.8,109.7 158.19,109.81 158.59,109.93 158.99,110.05 159.38,110.18 159.78,110.3 160.18,110.43 160.57,110.55 160.97,110.67 161.37,110.79 161.76,110.89 162.16,110.99 162.55,111.08 162.95,111.15 163.35,111.22 163.74,111.27 164.14,111.3 164.54,111.32 164.93,111.33 165.33,111.32 165.73,111.29 166.12,111.25 166.52,111.19 166.92,111.12 167.31,111.04 167.71,110.94 168.11,110.83 168.5,110.71 168.9,110.58 169.3,110.44 169.69,110.29 170.09,110.14 170.48,109.98 170.88,109.81 171.28,109.64 171.67,109.46 172.07,109.28 172.47,109.1 172.86,108.92 173.26,108.73 173.66,108.53 174.05,108.34 174.45,108.14 174.85,107.94 175.24,107.73 175.64,107.52 176.04,107.31 176.43,107.09 176.83,106.87 177.23,106.65 177.62,106.42 178.02,106.18 178.41,105.94 178.81,105.7 179.21,105.45 179.6,105.2 180,104.94 180.4,104.67 180.79,104.41 181.19,104.13 181.59,103.86 181.98,103.57 182.38,103.29 182.78,103 183.17,102.71 183.57,102.42 183.97,102.12 184.36,101.82 184.76,101.52 185.16,101.22 185.55,100.92 185.95,100.62 186.34,100.32 186.74,100.02 187.14,99.72 187.53,99.42 187.93,99.12 188.33,98.81 188.72,98.51 189.12,98.21 189.52,97.9 189.91,97.6 190.31,97.29 190.71,96.97 191.1,96.66 191.5,96.34 191.9,96.01 192.29,95.68 192.69,95.34 193.09,95 193.48,94.65 193.88,94.29 194.27,93.92 194.67,93.55 195.07,93.16 195.46,92.77 195.86,92.37 196.26,91.97 196.65,91.56 197.05,91.14 197.45,90.72 197.84,90.29 198.24,89.86 198.64,89.42 199.03,88.99 199.43,88.55 199.83,88.12 200.22,87.68 200.62,87.25 201.02,86.83 201.41,86.41 201.81,85.99 202.2,85.58 202.6,85.18 203,84.78 203.39,84.39 203.79,84.01 204.19,83.64 204.58,83.27 204.98,82.91 205.38,82.56 205.77,82.22 206.17,81.89 206.57,81.56 206.96,81.24 207.36,80.93 207.76,80.62 208.15,80.32 208.55,80.03 208.95,79.75 209.34,79.47 209.74,79.19 210.13,78.93 210.53,78.67 210.93,78.42 211.32,78.17 211.72,77.93 212.12,77.69 212.51,77.46 212.91,77.24 213.31,77.02 213.7,76.81 214.1,76.6 214.5,76.39 214.89,76.19 215.29,75.99 215.69,75.79 216.08,75.59 216.48,75.4 216.88,75.2 217.27,75.01 217.67,74.81 218.06,74.61 218.46,74.41 218.86,74.21 219.25,74 219.65,73.8 220.05,73.58 220.44,73.37 220.84,73.15 221.24,72.93 221.63,72.71 222.03,72.48 222.43,72.25 222.82,72.02 223.22,71.78 223.62,71.54 224.01,71.3 224.41,71.06 224.81,70.82 225.2,70.57 225.6,70.33 225.99,70.08 226.39,69.83 226.79,69.59 227.18,69.34 227.58,69.1 227.98,68.86 228.37,68.62 228.77,68.39 229.17,68.16 229.56,67.94 229.96,67.72 230.36,67.5 230.75,67.3 231.15,67.1 231.55,66.91 231.94,66.72 232.34,66.55 232.74,66.38 233.13,66.21 233.53,66.06 233.92,65.91 234.32,65.76 234.72,65.62 235.11,65.49 235.51,65.36 235.91,65.23 236.3,65.1 236.7,64.97 237.1,64.84 237.49,64.71 237.89,64.57 238.29,64.43 238.68,64.29 239.08,64.13 239.48,63.97 239.87,63.79 240.27,63.61 240.67,63.41 241.06,63.2 241.46,62.98 241.85,62.75 242.25,62.5 242.65,62.23 243.04,61.96 243.44,61.67 243.84,61.37 244.23,61.07 244.63,60.75 245.03,60.42 245.42,60.09 245.82,59.76 246.22,59.42 246.61,59.08 247.01,58.74 247.41,58.41 247.8,58.09 248.2,57.77 248.6,57.46 248.99,57.16 249.39,56.87 249.78,56.59 250.18,56.33 250.58,56.09 250.97,55.86 251.37,55.65 251.77,55.45 252.16,55.27 252.56,55.11 252.96,54.96 253.35,54.82 253.75,54.7 254.15,54.59 254.54,54.5 254.94,54.41 255.34,54.34 255.73,54.28 256.13,54.23 256.53,54.18 256.92,54.14 257.32,54.11 257.71,54.08 258.11,54.05 258.51,54.03 258.9,54.02 259.3,54.01 259.7,54 260.09,53.99 260.49,53.98 260.89,53.97 261.28,53.97 261.68,53.97" stroke-dasharray="none" stroke="rgb(31,120,180)" stroke-width="0.75" opacity="1" stroke-opacity="1" fill="none"/>
          </g>
          <g id="Fig:densplot_01.xyplot.lines.group.6.panel.1.1.1">
            <polyline id="Fig:densplot_01.xyplot.lines.group.6.panel.1.1.1.1" points="59.08,53.97 59.48,53.98 59.88,53.98 60.27,53.99 60.67,54 61.07,54.02 61.46,54.04 61.86,54.06 62.26,54.09 62.65,54.13 63.05,54.17 63.44,54.23 63.84,54.3 64.24,54.38 64.63,54.49 65.03,54.62 65.43,54.77 65.82,54.95 66.22,55.16 66.62,55.42 67.01,55.73 67.41,56.08 67.81,56.5 68.2,56.98 68.6,57.53 68.99,58.19 69.39,58.93 69.79,59.78 70.18,60.74 70.58,61.82 70.98,63.03 71.37,64.4 71.77,65.94 72.17,67.64 72.56,69.51 72.96,71.57 73.36,73.81 73.75,76.27 74.15,78.97 74.55,81.87 74.94,84.98 75.34,88.3 75.73,91.84 76.13,95.61 76.53,99.62 76.92,103.82 77.32,108.22 77.72,112.8 78.11,117.54 78.51,122.44 78.91,127.49 79.3,132.65 79.7,137.9 80.1,143.2 80.49,148.54 80.89,153.9 81.28,159.22 81.68,164.49 82.08,169.68 82.47,174.75 82.87,179.69 83.27,184.45 83.66,189.01 84.06,193.31 84.46,197.36 84.85,201.15 85.25,204.65 85.65,207.85 86.04,210.71 86.44,213.18 86.84,215.32 87.23,217.11 87.63,218.56 88.02,219.66 88.42,220.43 88.82,220.78 89.21,220.81 89.61,220.52 90.01,219.94 90.4,219.06 90.8,217.92 91.2,216.49 91.59,214.81 91.99,212.93 92.39,210.86 92.78,208.62 93.18,206.23 93.57,203.7 93.97,201.06 94.37,198.33 94.76,195.54 95.16,192.7 95.56,189.83 95.95,186.94 96.35,184.05 96.75,181.17 97.14,178.32 97.54,175.51 97.94,172.74 98.33,170.02 98.73,167.38 99.13,164.8 99.52,162.29 99.92,159.86 100.31,157.5 100.71,155.22 101.11,153.03 101.5,150.93 101.9,148.91 102.3,146.97 102.69,145.1 103.09,143.31 103.49,141.61 103.88,139.99 104.28,138.44 104.68,136.97 105.07,135.56 105.47,134.21 105.86,132.93 106.26,131.72 106.66,130.57 107.05,129.48 107.45,128.43 107.85,127.44 108.24,126.5 108.64,125.62 109.04,124.78 109.43,123.98 109.83,123.22 110.23,122.5 110.62,121.82 111.02,121.18 111.42,120.57 111.81,120 112.21,119.45 112.6,118.93 113,118.44 113.4,117.98 113.79,117.53 114.19,117.11 114.59,116.71 114.98,116.32 115.38,115.94 115.78,115.58 116.17,115.23 116.57,114.89 116.97,114.56 117.36,114.23 117.76,113.91 118.15,113.59 118.55,113.27 118.95,112.96 119.34,112.66 119.74,112.36 120.14,112.06 120.53,111.77 120.93,111.49 121.33,111.21 121.72,110.95 122.12,110.69 122.52,110.45 122.91,110.22 123.31,110.01 123.71,109.81 124.1,109.63 124.5,109.46 124.89,109.31 125.29,109.18 125.69,109.06 126.08,108.97 126.48,108.89 126.88,108.82 127.27,108.77 127.67,108.74 128.07,108.72 128.46,108.71 128.86,108.72 129.26,108.73 129.65,108.76 130.05,108.79 130.44,108.84 130.84,108.89 131.24,108.95 131.63,109.01 132.03,109.08 132.43,109.16 132.82,109.24 133.22,109.32 133.62,109.4 134.01,109.48 134.41,109.56 134.81,109.64 135.2,109.72 135.6,109.79 136,109.86 136.39,109.92 136.79,109.98 137.18,110.03 137.58,110.07 137.98,110.11 138.37,110.13 138.77,110.15 139.17,110.16 139.56,110.17 139.96,110.16 140.36,110.15 140.75,110.13 141.15,110.11 141.55,110.08 141.94,110.05 142.34,110.02 142.73,109.99 143.13,109.95 143.53,109.92 143.92,109.88 144.32,109.85 144.72,109.82 145.11,109.79 145.51,109.76 145.91,109.74 146.3,109.72 146.7,109.71 147.1,109.7 147.49,109.69 147.89,109.68 148.29,109.68 148.68,109.69 149.08,109.7 149.47,109.71 149.87,109.72 150.27,109.74 150.66,109.77 151.06,109.8 151.46,109.83 151.85,109.87 152.25,109.91 152.65,109.96 153.04,110.02 153.44,110.08 153.84,110.14 154.23,110.21 154.63,110.29 155.02,110.37 155.42,110.46 155.82,110.55 156.21,110.64 156.61,110.73 157.01,110.82 157.4,110.91 157.8,111 158.2,111.09 158.59,111.17 158.99,111.24 159.39,111.31 159.78,111.37 160.18,111.42 160.58,111.46 160.97,111.48 161.37,111.5 161.76,111.51 162.16,111.51 162.56,111.49 162.95,111.47 163.35,111.43 163.75,111.38 164.14,111.32 164.54,111.26 164.94,111.18 165.33,111.1 165.73,111.01 166.13,110.91 166.52,110.8 166.92,110.69 167.31,110.57 167.71,110.44 168.11,110.3 168.5,110.16 168.9,110.01 169.3,109.85 169.69,109.69 170.09,109.52 170.49,109.34 170.88,109.15 171.28,108.96 171.68,108.76 172.07,108.55 172.47,108.34 172.87,108.12 173.26,107.89 173.66,107.66 174.05,107.42 174.45,107.18 174.85,106.94 175.24,106.69 175.64,106.45 176.04,106.2 176.43,105.95 176.83,105.7 177.23,105.45 177.62,105.2 178.02,104.96 178.42,104.71 178.81,104.47 179.21,104.23 179.6,103.99 180,103.76 180.4,103.53 180.79,103.29 181.19,103.06 181.59,102.84 181.98,102.61 182.38,102.38 182.78,102.15 183.17,101.92 183.57,101.69 183.97,101.46 184.36,101.23 184.76,100.99 185.16,100.75 185.55,100.51 185.95,100.26 186.34,100.01 186.74,99.75 187.14,99.48 187.53,99.21 187.93,98.94 188.33,98.66 188.72,98.37 189.12,98.07 189.52,97.77 189.91,97.47 190.31,97.16 190.71,96.84 191.1,96.51 191.5,96.18 191.89,95.84 192.29,95.49 192.69,95.14 193.08,94.78 193.48,94.41 193.88,94.04 194.27,93.66 194.67,93.28 195.07,92.88 195.46,92.48 195.86,92.08 196.26,91.66 196.65,91.25 197.05,90.82 197.45,90.4 197.84,89.96 198.24,89.53 198.63,89.09 199.03,88.65 199.43,88.21 199.82,87.76 200.22,87.32 200.62,86.88 201.01,86.44 201.41,86 201.81,85.57 202.2,85.14 202.6,84.71 203,84.3 203.39,83.88 203.79,83.48 204.19,83.08 204.58,82.68 204.98,82.3 205.37,81.92 205.77,81.55 206.17,81.19 206.56,80.84 206.96,80.5 207.36,80.16 207.75,79.84 208.15,79.52 208.55,79.22 208.94,78.92 209.34,78.63 209.74,78.35 210.13,78.09 210.53,77.83 210.92,77.58 211.32,77.34 211.72,77.1 212.11,76.88 212.51,76.66 212.91,76.45 213.3,76.25 213.7,76.05 214.1,75.86 214.49,75.67 214.89,75.48 215.29,75.3 215.68,75.12 216.08,74.94 216.48,74.76 216.87,74.58 217.27,74.4 217.66,74.22 218.06,74.04 218.46,73.86 218.85,73.67 219.25,73.49 219.65,73.3 220.04,73.1 220.44,72.91 220.84,72.71 221.23,72.51 221.63,72.31 222.03,72.11 222.42,71.9 222.82,71.69 223.21,71.47 223.61,71.26 224.01,71.04 224.4,70.82 224.8,70.6 225.2,70.38 225.59,70.15 225.99,69.93 226.39,69.7 226.78,69.47 227.18,69.25 227.58,69.02 227.97,68.8 228.37,68.58 228.77,68.36 229.16,68.14 229.56,67.92 229.95,67.71 230.35,67.51 230.75,67.3 231.14,67.1 231.54,66.91 231.94,66.72 232.33,66.53 232.73,66.35 233.13,66.18 233.52,66.01 233.92,65.85 234.32,65.69 234.71,65.54 235.11,65.39 235.5,65.24 235.9,65.1 236.3,64.96 236.69,64.82 237.09,64.69 237.49,64.55 237.88,64.42 238.28,64.28 238.68,64.13 239.07,63.99 239.47,63.83 239.87,63.67 240.26,63.5 240.66,63.33 241.06,63.14 241.45,62.94 241.85,62.72 242.24,62.5 242.64,62.26 243.04,62.01 243.43,61.74 243.83,61.46 244.23,61.18 244.62,60.88 245.02,60.57 245.42,60.25 245.81,59.93 246.21,59.6 246.61,59.27 247,58.93 247.4,58.6 247.79,58.28 248.19,57.96 248.59,57.64 248.98,57.34 249.38,57.04 249.78,56.76 250.17,56.49 250.57,56.24 250.97,56 251.36,55.78 251.76,55.57 252.16,55.38 252.55,55.2 252.95,55.04 253.35,54.9 253.74,54.77 254.14,54.65 254.53,54.55 254.93,54.46 255.33,54.38 255.72,54.31 256.12,54.25 256.52,54.2 256.91,54.16 257.31,54.12 257.71,54.09 258.1,54.07 258.5,54.04 258.9,54.03 259.29,54.01 259.69,54 260.08,53.99 260.48,53.98 260.88,53.98 261.27,53.97 261.67,53.97" stroke-dasharray="none" stroke="rgb(31,120,180)" stroke-width="0.75" opacity="1" stroke-opacity="1" fill="none"/>
          </g>
          <g id="Fig:densplot_01.xyplot.lines.group.7.panel.1.1.1">
            <polyline id="Fig:densplot_01.xyplot.lines.group.7.panel.1.1.1.1" points="59.11,53.97 59.5,53.98 59.9,53.98 60.3,53.99 60.69,54 61.09,54.02 61.49,54.03 61.88,54.06 62.28,54.09 62.67,54.12 63.07,54.16 63.47,54.22 63.86,54.28 64.26,54.37 64.66,54.47 65.05,54.59 65.45,54.73 65.85,54.9 66.24,55.1 66.64,55.35 67.03,55.64 67.43,55.98 67.83,56.37 68.22,56.82 68.62,57.34 69.02,57.96 69.41,58.66 69.81,59.46 70.21,60.37 70.6,61.39 71,62.53 71.4,63.83 71.79,65.29 72.19,66.9 72.58,68.68 72.98,70.63 73.38,72.77 73.77,75.12 74.17,77.7 74.57,80.47 74.96,83.46 75.36,86.66 75.76,90.08 76.15,93.73 76.55,97.62 76.94,101.71 77.34,106 77.74,110.48 78.13,115.13 78.53,119.96 78.93,124.95 79.32,130.07 79.72,135.29 80.12,140.58 80.51,145.93 80.91,151.31 81.3,156.69 81.7,162.03 82.1,167.31 82.49,172.49 82.89,177.55 83.29,182.46 83.68,187.17 84.08,191.64 84.48,195.88 84.87,199.85 85.27,203.54 85.67,206.94 86.06,209.99 86.46,212.66 86.85,214.99 87.25,216.97 87.65,218.59 88.04,219.85 88.44,220.76 88.84,221.23 89.23,221.37 89.63,221.17 90.03,220.66 90.42,219.84 90.82,218.72 91.21,217.29 91.61,215.6 92.01,213.68 92.4,211.56 92.8,209.26 93.2,206.79 93.59,204.16 93.99,201.41 94.39,198.58 94.78,195.67 95.18,192.71 95.57,189.72 95.97,186.72 96.37,183.72 96.76,180.74 97.16,177.81 97.56,174.91 97.95,172.08 98.35,169.31 98.75,166.64 99.14,164.05 99.54,161.54 99.94,159.13 100.33,156.81 100.73,154.59 101.12,152.47 101.52,150.46 101.92,148.54 102.31,146.71 102.71,144.97 103.11,143.31 103.5,141.75 103.9,140.27 104.3,138.86 104.69,137.52 105.09,136.25 105.48,135.04 105.88,133.89 106.28,132.8 106.67,131.76 107.07,130.77 107.47,129.82 107.86,128.9 108.26,128.02 108.66,127.19 109.05,126.38 109.45,125.59 109.85,124.84 110.24,124.1 110.64,123.39 111.03,122.7 111.43,122.03 111.83,121.38 112.22,120.74 112.62,120.12 113.02,119.51 113.41,118.92 113.81,118.35 114.21,117.79 114.6,117.24 115,116.71 115.39,116.19 115.79,115.69 116.19,115.21 116.58,114.74 116.98,114.29 117.38,113.85 117.77,113.43 118.17,113.02 118.57,112.63 118.96,112.26 119.36,111.91 119.75,111.57 120.15,111.24 120.55,110.93 120.94,110.64 121.34,110.36 121.74,110.09 122.13,109.84 122.53,109.6 122.93,109.38 123.32,109.17 123.72,108.97 124.12,108.79 124.51,108.62 124.91,108.47 125.3,108.33 125.7,108.21 126.1,108.11 126.49,108.02 126.89,107.95 127.29,107.9 127.68,107.86 128.08,107.84 128.48,107.84 128.87,107.87 129.27,107.91 129.66,107.96 130.06,108.03 130.46,108.12 130.85,108.23 131.25,108.35 131.65,108.48 132.04,108.62 132.44,108.76 132.84,108.92 133.23,109.08 133.63,109.24 134.02,109.4 134.42,109.56 134.82,109.71 135.21,109.86 135.61,110 136.01,110.13 136.4,110.24 136.8,110.35 137.2,110.44 137.59,110.52 137.99,110.59 138.39,110.64 138.78,110.68 139.18,110.7 139.57,110.71 139.97,110.71 140.37,110.7 140.76,110.68 141.16,110.66 141.56,110.62 141.95,110.58 142.35,110.53 142.75,110.49 143.14,110.44 143.54,110.38 143.93,110.33 144.33,110.28 144.73,110.23 145.12,110.19 145.52,110.14 145.92,110.11 146.31,110.07 146.71,110.04 147.11,110.01 147.5,109.98 147.9,109.96 148.29,109.94 148.69,109.93 149.09,109.92 149.48,109.91 149.88,109.9 150.28,109.9 150.67,109.89 151.07,109.89 151.47,109.9 151.86,109.9 152.26,109.91 152.66,109.92 153.05,109.93 153.45,109.95 153.84,109.98 154.24,110 154.64,110.04 155.03,110.08 155.43,110.13 155.83,110.18 156.22,110.24 156.62,110.31 157.02,110.39 157.41,110.47 157.81,110.56 158.2,110.65 158.6,110.75 159,110.85 159.39,110.96 159.79,111.06 160.19,111.17 160.58,111.27 160.98,111.37 161.38,111.47 161.77,111.56 162.17,111.64 162.56,111.71 162.96,111.78 163.36,111.83 163.75,111.87 164.15,111.9 164.55,111.92 164.94,111.92 165.34,111.92 165.74,111.9 166.13,111.86 166.53,111.82 166.93,111.76 167.32,111.69 167.72,111.61 168.11,111.52 168.51,111.41 168.91,111.3 169.3,111.17 169.7,111.04 170.1,110.89 170.49,110.73 170.89,110.56 171.29,110.38 171.68,110.2 172.08,110 172.47,109.79 172.87,109.58 173.27,109.35 173.66,109.12 174.06,108.89 174.46,108.65 174.85,108.4 175.25,108.15 175.65,107.89 176.04,107.63 176.44,107.37 176.83,107.11 177.23,106.84 177.63,106.57 178.02,106.3 178.42,106.03 178.82,105.76 179.21,105.48 179.61,105.2 180.01,104.92 180.4,104.63 180.8,104.34 181.2,104.04 181.59,103.74 181.99,103.44 182.38,103.12 182.78,102.81 183.18,102.49 183.57,102.16 183.97,101.83 184.37,101.49 184.76,101.16 185.16,100.82 185.56,100.48 185.95,100.14 186.35,99.8 186.74,99.46 187.14,99.12 187.54,98.78 187.93,98.45 188.33,98.12 188.73,97.8 189.12,97.47 189.52,97.15 189.92,96.84 190.31,96.52 190.71,96.21 191.1,95.9 191.5,95.58 191.9,95.27 192.29,94.95 192.69,94.63 193.09,94.3 193.48,93.97 193.88,93.63 194.28,93.29 194.67,92.93 195.07,92.57 195.47,92.2 195.86,91.82 196.26,91.43 196.65,91.04 197.05,90.63 197.45,90.22 197.84,89.8 198.24,89.38 198.64,88.95 199.03,88.52 199.43,88.08 199.83,87.64 200.22,87.2 200.62,86.77 201.01,86.33 201.41,85.9 201.81,85.48 202.2,85.05 202.6,84.64 203,84.23 203.39,83.84 203.79,83.45 204.19,83.07 204.58,82.7 204.98,82.34 205.37,81.99 205.77,81.66 206.17,81.33 206.56,81.02 206.96,80.72 207.36,80.42 207.75,80.14 208.15,79.87 208.55,79.6 208.94,79.35 209.34,79.1 209.74,78.86 210.13,78.63 210.53,78.41 210.92,78.19 211.32,77.98 211.72,77.77 212.11,77.56 212.51,77.36 212.91,77.16 213.3,76.97 213.7,76.78 214.1,76.58 214.49,76.39 214.89,76.2 215.28,76.01 215.68,75.82 216.08,75.62 216.47,75.43 216.87,75.23 217.27,75.03 217.66,74.83 218.06,74.62 218.46,74.41 218.85,74.19 219.25,73.97 219.65,73.75 220.04,73.52 220.44,73.29 220.83,73.05 221.23,72.81 221.63,72.57 222.02,72.32 222.42,72.06 222.82,71.81 223.21,71.55 223.61,71.29 224.01,71.03 224.4,70.76 224.8,70.5 225.19,70.24 225.59,69.98 225.99,69.72 226.38,69.46 226.78,69.21 227.18,68.96 227.57,68.72 227.97,68.48 228.37,68.25 228.76,68.03 229.16,67.81 229.55,67.59 229.95,67.39 230.35,67.19 230.74,67 231.14,66.82 231.54,66.64 231.93,66.47 232.33,66.3 232.73,66.15 233.12,66 233.52,65.85 233.92,65.71 234.31,65.58 234.71,65.45 235.1,65.32 235.5,65.2 235.9,65.08 236.29,64.96 236.69,64.84 237.09,64.72 237.48,64.6 237.88,64.47 238.28,64.35 238.67,64.21 239.07,64.07 239.46,63.93 239.86,63.77 240.26,63.6 240.65,63.43 241.05,63.24 241.45,63.03 241.84,62.82 242.24,62.59 242.64,62.34 243.03,62.09 243.43,61.81 243.82,61.53 244.22,61.24 244.62,60.93 245.01,60.61 245.41,60.29 245.81,59.96 246.2,59.62 246.6,59.28 247,58.95 247.39,58.61 247.79,58.28 248.19,57.95 248.58,57.63 248.98,57.32 249.37,57.03 249.77,56.74 250.17,56.47 250.56,56.22 250.96,55.98 251.36,55.75 251.75,55.54 252.15,55.35 252.55,55.18 252.94,55.02 253.34,54.88 253.73,54.75 254.13,54.64 254.53,54.53 254.92,54.44 255.32,54.37 255.72,54.3 256.11,54.24 256.51,54.19 256.91,54.15 257.3,54.11 257.7,54.09 258.09,54.06 258.49,54.04 258.89,54.02 259.28,54.01 259.68,54 260.08,53.99 260.47,53.98 260.87,53.98 261.27,53.97 261.66,53.97" stroke-dasharray="none" stroke="rgb(31,120,180)" stroke-width="0.75" opacity="1" stroke-opacity="1" fill="none"/>
          </g>
          <g id="Fig:densplot_01.xyplot.lines.group.8.panel.1.1.1">
            <polyline id="Fig:densplot_01.xyplot.lines.group.8.panel.1.1.1.1" points="59.43,53.97 59.82,53.98 60.22,53.98 60.61,53.99 61.01,54 61.4,54.02 61.8,54.03 62.19,54.06 62.59,54.08 62.98,54.12 63.38,54.16 63.77,54.22 64.17,54.28 64.56,54.36 64.96,54.45 65.35,54.57 65.75,54.7 66.15,54.87 66.54,55.06 66.94,55.28 67.33,55.54 67.73,55.85 68.12,56.21 68.52,56.62 68.91,57.09 69.31,57.63 69.7,58.24 70.1,58.93 70.49,59.72 70.89,60.61 71.28,61.6 71.68,62.7 72.07,63.92 72.47,65.27 72.86,66.76 73.26,68.41 73.65,70.21 74.05,72.17 74.44,74.29 74.84,76.58 75.23,79.04 75.63,81.73 76.02,84.59 76.42,87.63 76.81,90.87 77.21,94.28 77.6,97.88 78,101.68 78.4,105.66 78.79,109.81 79.19,114.11 79.58,118.55 79.98,123.12 80.37,127.82 80.77,132.62 81.16,137.5 81.56,142.44 81.95,147.41 82.35,152.39 82.74,157.36 83.14,162.29 83.53,167.16 83.93,171.93 84.32,176.59 84.72,181.11 85.11,185.48 85.51,189.63 85.9,193.57 86.3,197.27 86.69,200.73 87.09,203.93 87.48,206.85 87.88,209.46 88.27,211.73 88.67,213.7 89.06,215.36 89.46,216.7 89.85,217.74 90.25,218.46 90.64,218.82 91.04,218.88 91.44,218.65 91.83,218.16 92.23,217.4 92.62,216.39 93.02,215.11 93.41,213.61 93.81,211.92 94.2,210.05 94.6,208.02 94.99,205.85 95.39,203.54 95.78,201.12 96.18,198.62 96.57,196.06 96.97,193.44 97.36,190.79 97.76,188.12 98.15,185.44 98.55,182.77 98.94,180.13 99.34,177.51 99.73,174.93 100.13,172.4 100.52,169.93 100.92,167.52 101.31,165.18 101.71,162.91 102.1,160.72 102.5,158.59 102.89,156.55 103.29,154.6 103.68,152.72 104.08,150.91 104.48,149.18 104.87,147.52 105.27,145.93 105.66,144.42 106.06,142.97 106.45,141.58 106.85,140.25 107.24,138.97 107.64,137.74 108.03,136.56 108.43,135.43 108.82,134.34 109.22,133.29 109.61,132.27 110.01,131.29 110.4,130.34 110.8,129.42 111.19,128.52 111.59,127.66 111.98,126.82 112.38,126 112.77,125.2 113.17,124.44 113.56,123.69 113.96,122.97 114.35,122.27 114.75,121.59 115.14,120.94 115.54,120.31 115.93,119.71 116.33,119.12 116.73,118.57 117.12,118.03 117.52,117.52 117.91,117.03 118.31,116.57 118.7,116.14 119.1,115.72 119.49,115.33 119.89,114.95 120.28,114.6 120.68,114.27 121.07,113.96 121.47,113.66 121.86,113.38 122.26,113.12 122.65,112.87 123.05,112.64 123.44,112.42 123.84,112.21 124.23,112.02 124.63,111.83 125.02,111.66 125.42,111.49 125.81,111.33 126.21,111.19 126.6,111.05 127,110.93 127.39,110.81 127.79,110.71 128.18,110.62 128.58,110.54 128.97,110.48 129.37,110.42 129.77,110.38 130.16,110.36 130.56,110.35 130.95,110.35 131.35,110.37 131.74,110.4 132.14,110.45 132.53,110.51 132.93,110.57 133.32,110.65 133.72,110.74 134.11,110.83 134.51,110.92 134.9,111.02 135.3,111.12 135.69,111.22 136.09,111.31 136.48,111.4 136.88,111.48 137.27,111.55 137.67,111.62 138.06,111.66 138.46,111.7 138.85,111.72 139.25,111.73 139.64,111.72 140.04,111.69 140.43,111.65 140.83,111.6 141.22,111.53 141.62,111.45 142.01,111.36 142.41,111.26 142.81,111.15 143.2,111.03 143.6,110.91 143.99,110.78 144.39,110.65 144.78,110.52 145.18,110.39 145.57,110.26 145.97,110.14 146.36,110.02 146.76,109.91 147.15,109.8 147.55,109.7 147.94,109.61 148.34,109.53 148.73,109.47 149.13,109.41 149.52,109.36 149.92,109.32 150.31,109.29 150.71,109.27 151.1,109.27 151.5,109.28 151.89,109.29 152.29,109.32 152.68,109.36 153.08,109.41 153.47,109.46 153.87,109.53 154.26,109.61 154.66,109.69 155.06,109.78 155.45,109.87 155.85,109.97 156.24,110.07 156.64,110.17 157.03,110.27 157.43,110.37 157.82,110.46 158.22,110.55 158.61,110.64 159.01,110.71 159.4,110.78 159.8,110.84 160.19,110.88 160.59,110.92 160.98,110.94 161.38,110.95 161.77,110.95 162.17,110.93 162.56,110.91 162.96,110.87 163.35,110.82 163.75,110.76 164.14,110.69 164.54,110.61 164.93,110.52 165.33,110.43 165.72,110.33 166.12,110.22 166.51,110.11 166.91,110 167.3,109.88 167.7,109.76 168.1,109.64 168.49,109.52 168.89,109.39 169.28,109.26 169.68,109.13 170.07,109 170.47,108.86 170.86,108.72 171.26,108.57 171.65,108.43 172.05,108.28 172.44,108.12 172.84,107.96 173.23,107.8 173.63,107.63 174.02,107.45 174.42,107.27 174.81,107.08 175.21,106.89 175.6,106.69 176,106.48 176.39,106.26 176.79,106.03 177.18,105.79 177.58,105.54 177.97,105.29 178.37,105.02 178.76,104.74 179.16,104.45 179.55,104.15 179.95,103.84 180.34,103.52 180.74,103.2 181.14,102.86 181.53,102.52 181.93,102.17 182.32,101.82 182.72,101.47 183.11,101.12 183.51,100.77 183.9,100.42 184.3,100.07 184.69,99.73 185.09,99.39 185.48,99.06 185.88,98.73 186.27,98.42 186.67,98.11 187.06,97.8 187.46,97.5 187.85,97.21 188.25,96.92 188.64,96.63 189.04,96.35 189.43,96.07 189.83,95.78 190.22,95.49 190.62,95.2 191.01,94.91 191.41,94.61 191.8,94.31 192.2,93.99 192.59,93.68 192.99,93.35 193.38,93.01 193.78,92.67 194.18,92.31 194.57,91.95 194.97,91.58 195.36,91.21 195.76,90.82 196.15,90.43 196.55,90.03 196.94,89.63 197.34,89.22 197.73,88.81 198.13,88.39 198.52,87.97 198.92,87.55 199.31,87.12 199.71,86.7 200.1,86.28 200.5,85.86 200.89,85.44 201.29,85.02 201.68,84.61 202.08,84.21 202.47,83.81 202.87,83.41 203.26,83.03 203.66,82.65 204.05,82.28 204.45,81.92 204.84,81.57 205.24,81.23 205.63,80.89 206.03,80.57 206.43,80.26 206.82,79.95 207.22,79.65 207.61,79.36 208.01,79.08 208.4,78.81 208.8,78.55 209.19,78.3 209.59,78.05 209.98,77.81 210.38,77.58 210.77,77.35 211.17,77.13 211.56,76.92 211.96,76.71 212.35,76.5 212.75,76.3 213.14,76.11 213.54,75.92 213.93,75.73 214.33,75.55 214.72,75.36 215.12,75.18 215.51,75 215.91,74.81 216.3,74.63 216.7,74.45 217.09,74.26 217.49,74.07 217.88,73.88 218.28,73.69 218.67,73.49 219.07,73.29 219.47,73.08 219.86,72.88 220.26,72.66 220.65,72.45 221.05,72.23 221.44,72 221.84,71.77 222.23,71.54 222.63,71.31 223.02,71.07 223.42,70.83 223.81,70.58 224.21,70.34 224.6,70.09 225,69.85 225.39,69.6 225.79,69.36 226.18,69.12 226.58,68.88 226.97,68.64 227.37,68.41 227.76,68.18 228.16,67.96 228.55,67.75 228.95,67.54 229.34,67.33 229.74,67.14 230.13,66.95 230.53,66.76 230.92,66.59 231.32,66.42 231.71,66.26 232.11,66.11 232.51,65.96 232.9,65.82 233.3,65.68 233.69,65.55 234.09,65.42 234.48,65.3 234.88,65.18 235.27,65.07 235.67,64.95 236.06,64.84 236.46,64.72 236.85,64.61 237.25,64.49 237.64,64.37 238.04,64.24 238.43,64.11 238.83,63.97 239.22,63.82 239.62,63.67 240.01,63.5 240.41,63.33 240.8,63.14 241.2,62.94 241.59,62.72 241.99,62.49 242.38,62.25 242.78,62 243.17,61.73 243.57,61.45 243.96,61.16 244.36,60.86 244.76,60.55 245.15,60.23 245.55,59.9 245.94,59.57 246.34,59.24 246.73,58.91 247.13,58.58 247.52,58.25 247.92,57.93 248.31,57.61 248.71,57.31 249.1,57.02 249.5,56.73 249.89,56.47 250.29,56.21 250.68,55.97 251.08,55.75 251.47,55.55 251.87,55.36 252.26,55.18 252.66,55.02 253.05,54.88 253.45,54.75 253.84,54.64 254.24,54.54 254.63,54.45 255.03,54.37 255.42,54.3 255.82,54.24 256.21,54.19 256.61,54.15 257,54.12 257.4,54.09 257.8,54.06 258.19,54.04 258.59,54.02 258.98,54.01 259.38,54 259.77,53.99 260.17,53.98 260.56,53.98 260.96,53.97 261.35,53.97" stroke-dasharray="none" stroke="rgb(31,120,180)" stroke-width="0.75" opacity="1" stroke-opacity="1" fill="none"/>
          </g>
          <g id="Fig:densplot_01.xyplot.lines.group.9.panel.1.1.1">
            <polyline id="Fig:densplot_01.xyplot.lines.group.9.panel.1.1.1.1" points="59.18,53.97 59.58,53.98 59.97,53.98 60.37,53.99 60.77,54 61.16,54.01 61.56,54.03 61.95,54.05 62.35,54.08 62.75,54.11 63.14,54.15 63.54,54.2 63.93,54.27 64.33,54.34 64.73,54.44 65.12,54.55 65.52,54.69 65.91,54.85 66.31,55.04 66.71,55.28 67.1,55.55 67.5,55.87 67.89,56.24 68.29,56.67 68.69,57.18 69.08,57.77 69.48,58.44 69.87,59.2 70.27,60.07 70.67,61.04 71.06,62.15 71.46,63.4 71.86,64.8 72.25,66.34 72.65,68.05 73.04,69.92 73.44,71.98 73.84,74.26 74.23,76.74 74.63,79.42 75.02,82.3 75.42,85.38 75.82,88.68 76.21,92.23 76.61,95.99 77,99.95 77.4,104.1 77.8,108.44 78.19,112.96 78.59,117.66 78.98,122.52 79.38,127.51 79.78,132.6 80.17,137.78 80.57,143.02 80.97,148.3 81.36,153.58 81.76,158.84 82.15,164.05 82.55,169.18 82.95,174.2 83.34,179.09 83.74,183.78 84.13,188.26 84.53,192.53 84.93,196.55 85.32,200.31 85.72,203.79 86.11,206.92 86.51,209.71 86.91,212.18 87.3,214.31 87.7,216.11 88.09,217.56 88.49,218.64 88.89,219.34 89.28,219.72 89.68,219.77 90.07,219.52 90.47,218.97 90.87,218.12 91.26,216.96 91.66,215.55 92.06,213.92 92.45,212.08 92.85,210.06 93.24,207.86 93.64,205.49 94.04,202.99 94.43,200.39 94.83,197.71 95.22,194.96 95.62,192.16 96.02,189.33 96.41,186.49 96.81,183.65 97.2,180.83 97.6,178.04 98,175.29 98.39,172.6 98.79,169.98 99.18,167.43 99.58,164.95 99.98,162.56 100.37,160.24 100.77,158.01 101.17,155.89 101.56,153.85 101.96,151.9 102.35,150.04 102.75,148.25 103.15,146.55 103.54,144.94 103.94,143.4 104.33,141.94 104.73,140.54 105.13,139.2 105.52,137.92 105.92,136.71 106.31,135.55 106.71,134.44 107.11,133.37 107.5,132.35 107.9,131.36 108.29,130.41 108.69,129.5 109.09,128.63 109.48,127.77 109.88,126.95 110.27,126.15 110.67,125.37 111.07,124.61 111.46,123.88 111.86,123.16 112.26,122.46 112.65,121.77 113.05,121.1 113.44,120.45 113.84,119.81 114.24,119.19 114.63,118.58 115.03,117.98 115.42,117.4 115.82,116.83 116.22,116.28 116.61,115.75 117.01,115.23 117.4,114.72 117.8,114.23 118.2,113.76 118.59,113.3 118.99,112.86 119.38,112.44 119.78,112.04 120.18,111.65 120.57,111.29 120.97,110.94 121.37,110.61 121.76,110.31 122.16,110.02 122.55,109.75 122.95,109.5 123.35,109.28 123.74,109.08 124.14,108.89 124.53,108.73 124.93,108.59 125.33,108.47 125.72,108.37 126.12,108.3 126.51,108.24 126.91,108.21 127.31,108.19 127.7,108.19 128.1,108.21 128.49,108.25 128.89,108.31 129.29,108.38 129.68,108.46 130.08,108.55 130.48,108.65 130.87,108.76 131.27,108.88 131.66,109 132.06,109.12 132.46,109.25 132.85,109.37 133.25,109.49 133.64,109.62 134.04,109.73 134.44,109.84 134.83,109.94 135.23,110.04 135.62,110.13 136.02,110.2 136.42,110.27 136.81,110.32 137.21,110.37 137.6,110.4 138,110.43 138.4,110.44 138.79,110.44 139.19,110.44 139.58,110.42 139.98,110.4 140.38,110.37 140.77,110.33 141.17,110.29 141.57,110.25 141.96,110.2 142.36,110.15 142.75,110.1 143.15,110.05 143.55,110 143.94,109.95 144.34,109.9 144.73,109.85 145.13,109.8 145.53,109.76 145.92,109.72 146.32,109.68 146.71,109.64 147.11,109.61 147.51,109.57 147.9,109.54 148.3,109.52 148.69,109.49 149.09,109.47 149.49,109.45 149.88,109.43 150.28,109.41 150.68,109.4 151.07,109.39 151.47,109.39 151.86,109.39 152.26,109.39 152.66,109.4 153.05,109.42 153.45,109.44 153.84,109.47 154.24,109.51 154.64,109.55 155.03,109.61 155.43,109.67 155.82,109.74 156.22,109.82 156.62,109.91 157.01,110.01 157.41,110.11 157.8,110.22 158.2,110.33 158.6,110.45 158.99,110.57 159.39,110.69 159.78,110.81 160.18,110.93 160.58,111.04 160.97,111.14 161.37,111.23 161.77,111.32 162.16,111.39 162.56,111.45 162.95,111.49 163.35,111.51 163.75,111.52 164.14,111.51 164.54,111.48 164.93,111.44 165.33,111.38 165.73,111.3 166.12,111.21 166.52,111.11 166.91,110.99 167.31,110.87 167.71,110.74 168.1,110.6 168.5,110.46 168.89,110.32 169.29,110.17 169.69,110.03 170.08,109.89 170.48,109.76 170.88,109.62 171.27,109.5 171.67,109.37 172.06,109.25 172.46,109.13 172.86,109.02 173.25,108.9 173.65,108.79 174.04,108.67 174.44,108.54 174.84,108.41 175.23,108.27 175.63,108.12 176.02,107.96 176.42,107.78 176.82,107.59 177.21,107.39 177.61,107.17 178,106.93 178.4,106.68 178.8,106.41 179.19,106.12 179.59,105.82 179.99,105.51 180.38,105.19 180.78,104.85 181.17,104.51 181.57,104.17 181.97,103.82 182.36,103.46 182.76,103.11 183.15,102.76 183.55,102.41 183.95,102.07 184.34,101.73 184.74,101.39 185.13,101.07 185.53,100.74 185.93,100.43 186.32,100.12 186.72,99.82 187.11,99.51 187.51,99.22 187.91,98.92 188.3,98.62 188.7,98.33 189.09,98.03 189.49,97.73 189.89,97.42 190.28,97.11 190.68,96.78 191.08,96.45 191.47,96.12 191.87,95.77 192.26,95.41 192.66,95.04 193.06,94.66 193.45,94.28 193.85,93.88 194.24,93.47 194.64,93.06 195.04,92.63 195.43,92.21 195.83,91.77 196.22,91.33 196.62,90.89 197.02,90.45 197.41,90.01 197.81,89.56 198.2,89.12 198.6,88.68 199,88.24 199.39,87.81 199.79,87.38 200.19,86.95 200.58,86.53 200.98,86.12 201.37,85.71 201.77,85.31 202.17,84.91 202.56,84.52 202.96,84.14 203.35,83.76 203.75,83.39 204.15,83.03 204.54,82.67 204.94,82.32 205.33,81.98 205.73,81.64 206.13,81.31 206.52,80.99 206.92,80.68 207.31,80.37 207.71,80.07 208.11,79.78 208.5,79.5 208.9,79.22 209.29,78.96 209.69,78.7 210.09,78.45 210.48,78.21 210.88,77.98 211.28,77.76 211.67,77.55 212.07,77.34 212.46,77.14 212.86,76.95 213.26,76.76 213.65,76.58 214.05,76.4 214.44,76.22 214.84,76.04 215.24,75.87 215.63,75.69 216.03,75.51 216.42,75.33 216.82,75.15 217.22,74.96 217.61,74.76 218.01,74.56 218.4,74.35 218.8,74.14 219.2,73.92 219.59,73.69 219.99,73.46 220.39,73.21 220.78,72.96 221.18,72.71 221.57,72.45 221.97,72.18 222.37,71.91 222.76,71.64 223.16,71.36 223.55,71.08 223.95,70.8 224.35,70.52 224.74,70.24 225.14,69.96 225.53,69.69 225.93,69.41 226.33,69.14 226.72,68.88 227.12,68.62 227.51,68.36 227.91,68.11 228.31,67.87 228.7,67.64 229.1,67.42 229.5,67.2 229.89,67 230.29,66.8 230.68,66.61 231.08,66.43 231.48,66.26 231.87,66.1 232.27,65.95 232.66,65.81 233.06,65.67 233.46,65.54 233.85,65.42 234.25,65.31 234.64,65.2 235.04,65.09 235.44,64.99 235.83,64.89 236.23,64.79 236.62,64.69 237.02,64.59 237.42,64.49 237.81,64.39 238.21,64.28 238.6,64.17 239,64.05 239.4,63.92 239.79,63.78 240.19,63.63 240.59,63.47 240.98,63.3 241.38,63.11 241.77,62.91 242.17,62.7 242.57,62.47 242.96,62.22 243.36,61.96 243.75,61.69 244.15,61.41 244.55,61.11 244.94,60.8 245.34,60.48 245.73,60.16 246.13,59.83 246.53,59.49 246.92,59.16 247.32,58.82 247.71,58.49 248.11,58.16 248.51,57.84 248.9,57.52 249.3,57.22 249.7,56.92 250.09,56.64 250.49,56.38 250.88,56.13 251.28,55.9 251.68,55.68 252.07,55.48 252.47,55.29 252.86,55.12 253.26,54.97 253.66,54.83 254.05,54.71 254.45,54.6 254.84,54.5 255.24,54.42 255.64,54.34 256.03,54.28 256.43,54.22 256.82,54.18 257.22,54.14 257.62,54.1 258.01,54.08 258.41,54.05 258.8,54.03 259.2,54.02 259.6,54 259.99,53.99 260.39,53.99 260.79,53.98 261.18,53.97 261.58,53.97" stroke-dasharray="none" stroke="rgb(31,120,180)" stroke-width="0.75" opacity="1" stroke-opacity="1" fill="none"/>
          </g>
          <g id="Fig:densplot_01.xyplot.lines.group.10.panel.1.1.1">
            <polyline id="Fig:densplot_01.xyplot.lines.group.10.panel.1.1.1.1" points="59.13,53.97 59.53,53.97 59.92,53.98 60.32,53.99 60.71,54 61.11,54.01 61.51,54.03 61.9,54.05 62.3,54.07 62.7,54.11 63.09,54.15 63.49,54.2 63.88,54.26 64.28,54.34 64.68,54.44 65.07,54.55 65.47,54.69 65.87,54.86 66.26,55.06 66.66,55.3 67.06,55.59 67.45,55.92 67.85,56.31 68.24,56.76 68.64,57.29 69.04,57.9 69.43,58.6 69.83,59.41 70.23,60.31 70.62,61.34 71.02,62.49 71.41,63.81 71.81,65.28 72.21,66.9 72.6,68.69 73,70.65 73.4,72.8 73.79,75.19 74.19,77.77 74.58,80.56 74.98,83.56 75.38,86.76 75.77,90.18 76.17,93.85 76.57,97.72 76.96,101.8 77.36,106.07 77.75,110.52 78.15,115.15 78.55,119.94 78.94,124.89 79.34,129.95 79.74,135.1 80.13,140.33 80.53,145.6 80.92,150.91 81.32,156.2 81.72,161.44 82.11,166.63 82.51,171.71 82.91,176.68 83.3,181.5 83.7,186.1 84.09,190.49 84.49,194.65 84.89,198.56 85.28,202.19 85.68,205.53 86.08,208.51 86.47,211.16 86.87,213.46 87.27,215.44 87.66,217.06 88.06,218.35 88.45,219.25 88.85,219.78 89.25,219.97 89.64,219.84 90.04,219.41 90.44,218.67 90.83,217.64 91.23,216.3 91.62,214.71 92.02,212.9 92.42,210.89 92.81,208.7 93.21,206.34 93.61,203.81 94,201.16 94.4,198.43 94.79,195.61 95.19,192.75 95.59,189.84 95.98,186.91 96.38,183.97 96.78,181.06 97.17,178.16 97.57,175.31 97.96,172.5 98.36,169.76 98.76,167.09 99.15,164.49 99.55,161.97 99.95,159.53 100.34,157.18 100.74,154.91 101.13,152.74 101.53,150.67 101.93,148.68 102.32,146.77 102.72,144.94 103.12,143.2 103.51,141.55 103.91,139.98 104.3,138.49 104.7,137.06 105.1,135.7 105.49,134.41 105.89,133.19 106.29,132.03 106.68,130.93 107.08,129.87 107.48,128.87 107.87,127.92 108.27,127.01 108.66,126.14 109.06,125.32 109.46,124.52 109.85,123.76 110.25,123.03 110.65,122.33 111.04,121.66 111.44,121.01 111.83,120.39 112.23,119.78 112.63,119.2 113.02,118.63 113.42,118.09 113.82,117.56 114.21,117.05 114.61,116.56 115,116.08 115.4,115.61 115.8,115.16 116.19,114.73 116.59,114.3 116.99,113.89 117.38,113.5 117.78,113.11 118.17,112.74 118.57,112.38 118.97,112.04 119.36,111.7 119.76,111.38 120.16,111.07 120.55,110.77 120.95,110.49 121.34,110.22 121.74,109.97 122.14,109.73 122.53,109.5 122.93,109.29 123.33,109.1 123.72,108.93 124.12,108.78 124.51,108.64 124.91,108.52 125.31,108.42 125.7,108.33 126.1,108.26 126.5,108.21 126.89,108.18 127.29,108.16 127.69,108.15 128.08,108.16 128.48,108.17 128.87,108.2 129.27,108.24 129.67,108.29 130.06,108.34 130.46,108.39 130.86,108.46 131.25,108.52 131.65,108.59 132.04,108.66 132.44,108.73 132.84,108.8 133.23,108.86 133.63,108.93 134.03,109 134.42,109.06 134.82,109.12 135.21,109.18 135.61,109.24 136.01,109.3 136.4,109.36 136.8,109.41 137.2,109.47 137.59,109.52 137.99,109.58 138.38,109.64 138.78,109.69 139.18,109.75 139.57,109.82 139.97,109.88 140.37,109.95 140.76,110.02 141.16,110.09 141.55,110.16 141.95,110.24 142.35,110.32 142.74,110.4 143.14,110.48 143.54,110.56 143.93,110.63 144.33,110.71 144.72,110.79 145.12,110.86 145.52,110.92 145.91,110.99 146.31,111.04 146.71,111.09 147.1,111.13 147.5,111.17 147.9,111.2 148.29,111.21 148.69,111.23 149.08,111.23 149.48,111.23 149.88,111.22 150.27,111.2 150.67,111.18 151.07,111.16 151.46,111.14 151.86,111.11 152.25,111.08 152.65,111.06 153.05,111.04 153.44,111.02 153.84,111.01 154.24,111 154.63,111 155.03,111 155.42,111.02 155.82,111.04 156.22,111.07 156.61,111.11 157.01,111.16 157.41,111.21 157.8,111.27 158.2,111.33 158.59,111.4 158.99,111.48 159.39,111.56 159.78,111.63 160.18,111.71 160.58,111.79 160.97,111.87 161.37,111.95 161.76,112.02 162.16,112.09 162.56,112.16 162.95,112.22 163.35,112.27 163.75,112.32 164.14,112.36 164.54,112.4 164.93,112.42 165.33,112.44 165.73,112.45 166.12,112.44 166.52,112.43 166.92,112.41 167.31,112.37 167.71,112.33 168.11,112.27 168.5,112.2 168.9,112.11 169.29,112.01 169.69,111.9 170.09,111.78 170.48,111.64 170.88,111.49 171.28,111.33 171.67,111.15 172.07,110.97 172.46,110.77 172.86,110.56 173.26,110.34 173.65,110.11 174.05,109.87 174.45,109.63 174.84,109.38 175.24,109.12 175.63,108.85 176.03,108.58 176.43,108.29 176.82,108.01 177.22,107.71 177.62,107.41 178.01,107.1 178.41,106.78 178.8,106.46 179.2,106.13 179.6,105.79 179.99,105.45 180.39,105.1 180.79,104.75 181.18,104.4 181.58,104.04 181.97,103.68 182.37,103.33 182.77,102.98 183.16,102.63 183.56,102.28 183.96,101.95 184.35,101.62 184.75,101.29 185.14,100.98 185.54,100.67 185.94,100.37 186.33,100.09 186.73,99.8 187.13,99.53 187.52,99.26 187.92,98.99 188.32,98.73 188.71,98.46 189.11,98.19 189.5,97.93 189.9,97.65 190.3,97.37 190.69,97.08 191.09,96.78 191.49,96.47 191.88,96.14 192.28,95.81 192.67,95.46 193.07,95.1 193.47,94.72 193.86,94.33 194.26,93.94 194.66,93.53 195.05,93.11 195.45,92.68 195.84,92.24 196.24,91.81 196.64,91.36 197.03,90.92 197.43,90.47 197.83,90.03 198.22,89.59 198.62,89.15 199.01,88.71 199.41,88.28 199.81,87.86 200.2,87.44 200.6,87.03 201,86.63 201.39,86.23 201.79,85.84 202.18,85.46 202.58,85.08 202.98,84.7 203.37,84.34 203.77,83.97 204.17,83.62 204.56,83.27 204.96,82.92 205.36,82.57 205.75,82.24 206.15,81.91 206.54,81.58 206.94,81.26 207.34,80.94 207.73,80.64 208.13,80.34 208.53,80.04 208.92,79.76 209.32,79.49 209.71,79.22 210.11,78.96 210.51,78.71 210.9,78.47 211.3,78.24 211.7,78.02 212.09,77.81 212.49,77.6 212.88,77.39 213.28,77.2 213.68,77 214.07,76.81 214.47,76.62 214.87,76.43 215.26,76.23 215.66,76.04 216.05,75.84 216.45,75.63 216.85,75.42 217.24,75.2 217.64,74.98 218.04,74.74 218.43,74.5 218.83,74.25 219.22,73.99 219.62,73.73 220.02,73.46 220.41,73.18 220.81,72.89 221.21,72.6 221.6,72.31 222,72.01 222.39,71.71 222.79,71.42 223.19,71.12 223.58,70.83 223.98,70.54 224.38,70.25 224.77,69.97 225.17,69.69 225.57,69.42 225.96,69.16 226.36,68.9 226.75,68.66 227.15,68.42 227.55,68.19 227.94,67.97 228.34,67.75 228.74,67.55 229.13,67.35 229.53,67.16 229.92,66.98 230.32,66.81 230.72,66.64 231.11,66.48 231.51,66.32 231.91,66.17 232.3,66.02 232.7,65.88 233.09,65.74 233.49,65.6 233.89,65.47 234.28,65.34 234.68,65.2 235.08,65.07 235.47,64.94 235.87,64.81 236.26,64.67 236.66,64.53 237.06,64.39 237.45,64.25 237.85,64.1 238.25,63.94 238.64,63.78 239.04,63.62 239.43,63.44 239.83,63.26 240.23,63.07 240.62,62.87 241.02,62.65 241.42,62.43 241.81,62.2 242.21,61.96 242.6,61.71 243,61.44 243.4,61.17 243.79,60.89 244.19,60.6 244.59,60.3 244.98,60 245.38,59.69 245.78,59.38 246.17,59.07 246.57,58.75 246.96,58.44 247.36,58.13 247.76,57.83 248.15,57.53 248.55,57.24 248.95,56.96 249.34,56.7 249.74,56.44 250.13,56.2 250.53,55.97 250.93,55.75 251.32,55.55 251.72,55.37 252.12,55.2 252.51,55.04 252.91,54.9 253.3,54.77 253.7,54.66 254.1,54.56 254.49,54.47 254.89,54.39 255.29,54.32 255.68,54.26 256.08,54.21 256.47,54.17 256.87,54.13 257.27,54.1 257.66,54.07 258.06,54.05 258.46,54.03 258.85,54.02 259.25,54 259.64,53.99 260.04,53.98 260.44,53.98 260.83,53.97 261.23,53.97 261.63,53.97" stroke-dasharray="none" stroke="rgb(31,120,180)" stroke-width="0.75" opacity="1" stroke-opacity="1" fill="none"/>
          </g>
        </g>
        <g id="Fig:densplot_01.panel.1.1.off.vp.2">
          <g id="Fig:densplot_01.border.panel.1.1.1">
            <rect id="Fig:densplot_01.border.panel.1.1.1.1" x="44.8" y="42.19" width="231.2" height="191.81" transform="" stroke="rgb(0,0,0)" stroke-dasharray="none" stroke-width="0.75" opacity="1" fill="none" stroke-opacity="1" fill-opacity="0"/>
          </g>
        </g>
        <g id="Fig:densplot_01..1"/>
      </g>
    </g>
  </g>
</svg>